<svg width="30" height="30" viewBox="0 0 30 30" fill="none" xmlns="http://www.w3.org/2000/svg">
<g clip-path="url(#clip0_72_1232)">
<path d="M23.6685 17.3052C20.1774 17.3052 17.3371 20.1528 17.3371 23.6528C17.3371 27.1529 20.1774 30 23.6685 30C27.1597 30 30 27.1527 30 23.6526C30 20.1525 27.1597 17.3052 23.6685 17.3052ZM25.2641 25.7158C25.072 25.9103 24.7619 25.9217 24.556 25.7415L21.9496 23.4644L19.3432 25.7415C19.1315 25.9268 18.7984 25.9043 18.6133 25.6921C18.4253 25.4773 18.4473 25.1504 18.6627 24.9624L21.6094 22.3878C21.8044 22.2174 22.095 22.2174 22.29 22.3878L24.8707 24.6424L27.8192 21.6622C28.0202 21.459 28.3476 21.457 28.5508 21.6581C28.7538 21.8591 28.7557 22.1865 28.5547 22.3894L25.2641 25.7158Z" fill="#EAEEEE"/>
<path d="M11.5756 0C4.75403 0 0 2.0954 0 3.97597C0 5.85653 4.75403 7.95169 11.5756 7.95169C18.3973 7.95169 23.1513 5.85653 23.1513 3.97597C23.1513 2.0954 18.3975 0 11.5756 0Z" fill="#EAEEEE"/>
<path d="M0 6.0242V9.61452C0 11.4951 4.75403 13.5905 11.5756 13.5905C18.3973 13.5905 23.1513 11.4951 23.1513 9.61452V6.0242C21.0919 7.91009 16.2726 8.98622 11.5756 8.98622C6.87871 8.98622 2.05936 7.91009 0 6.0242Z" fill="#EAEEEE"/>
<path d="M0 17.731V21.42C0 23.3006 4.75403 25.396 11.5756 25.396C13.2719 25.396 14.9018 25.2672 16.4286 25.0127C16.3449 24.5644 16.3028 24.1089 16.3028 23.6523C16.3028 22.4231 16.5977 21.2443 17.1644 20.1847C15.4401 20.5113 13.5334 20.6816 11.5759 20.6816C6.255 20.6821 1.90282 19.5024 0 17.731Z" fill="#EAEEEE"/>
<path d="M0 11.6533V15.6716C0 17.5522 4.75403 19.6476 11.5756 19.6476C13.8675 19.6476 16.0817 19.4069 17.9923 18.9511C19.2426 17.4365 21.0404 16.4838 22.9839 16.3031C23.0819 16.3147 23.1627 16.1746 23.1513 15.6716V11.6533C21.2347 13.4296 16.8368 14.625 11.5756 14.625C6.31452 14.625 1.91661 13.4296 0 11.6533Z" fill="#EAEEEE"/>
</g>
<defs>
<clipPath id="clip0_72_1232">
<rect width="30" height="30" fill="white"/>
</clipPath>
</defs>
</svg>
