<svg width="40" height="40" viewBox="0 0 40 40" fill="none" xmlns="http://www.w3.org/2000/svg">
<path d="M21.25 13.75V12.5H18.75V13.75H18.2325L16.25 15.7325V19.2675L18.2325 21.25H20.7325L21.25 21.7675V23.2325L20.7325 23.75H19.2675L18.75 23.2325V22.5H16.25V24.2675L18.2325 26.25H18.75V27.5H21.25V26.25H21.7675L23.75 24.2675V20.7325L21.7675 18.75H19.2675L18.75 18.2325V16.7675L19.2675 16.25H20.7325L21.25 16.7675V17.5H23.75V15.7325L21.7675 13.75H21.25Z" fill="#EAEEEE"/>
<path d="M31.9825 10H35.5175L37.5 8.0175V4.4825L35.5175 2.5H31.9825L30 4.4825V8.0175L30.1075 8.125L28.75 9.4825L26.7675 7.5H23.75V4.4825L21.7675 2.5H18.2325L16.25 4.4825V7.5H13.2325L11.25 9.4825L9.8925 8.125L10 8.0175V4.4825L8.0175 2.5H4.4825L2.5 4.4825V8.0175L4.4825 10H8.0175L8.125 9.8925L9.4825 11.25L7.5 13.2325V16.25H4.4825L2.5 18.2325V21.7675L4.4825 23.75H7.5V26.7675L9.4825 28.75L8.125 30.1075L8.0175 30H4.4825L2.5 31.9825V35.5175L4.4825 37.5H8.0175L10 35.5175V31.9825L9.8925 31.875L11.25 30.5175L13.2325 32.5H16.25V35.5175L18.2325 37.5H21.7675L23.75 35.5175V32.5H26.7675L28.75 30.5175L30.1075 31.875L30 31.9825V35.5175L31.9825 37.5H35.5175L37.5 35.5175V31.9825L35.5175 30H31.9825L31.875 30.1075L30.5175 28.75L32.5 26.7675V23.75H35.5175L37.5 21.7675V18.2325L35.5175 16.25H32.5V13.2325L30.5175 11.25L31.875 9.8925L31.9825 10ZM7.5 6.9825L6.9825 7.5H5.5175L5 6.9825V5.5175L5.5175 5H6.9825L7.5 5.5175V6.9825ZM7.5 34.4825L6.9825 35H5.5175L5 34.4825V33.0175L5.5175 32.5H6.9825L7.5 33.0175V34.4825ZM32.5 33.0175L33.0175 32.5H34.4825L35 33.0175V34.4825L34.4825 35H33.0175L32.5 34.4825V33.0175ZM18.75 6.9825V5.5175L19.2675 5H20.7325L21.25 5.5175V6.9825L20.7325 7.5H19.2675L18.75 6.9825ZM6.9825 21.25H5.5175L5 20.7325V19.2675L5.5175 18.75H6.9825L7.5 19.2675V20.7325L6.9825 21.25ZM21.25 33.0175V34.4825L20.7325 35H19.2675L18.75 34.4825V33.0175L19.2675 32.5H20.7325L21.25 33.0175ZM25.7325 30H14.2675L10 25.7325V14.2675L14.2675 10H25.7325L30 14.2675V25.7325L25.7325 30ZM33.0175 18.75H34.4825L35 19.2675V20.7325L34.4825 21.25H33.0175L32.5 20.7325V19.2675L33.0175 18.75ZM32.5 5.5175L33.0175 5H34.4825L35 5.5175V6.9825L34.4825 7.5H33.0175L32.5 6.9825V5.5175Z" fill="#EAEEEE"/>
</svg>
