<svg width="35" height="35" viewBox="0 0 35 35" fill="none" xmlns="http://www.w3.org/2000/svg">
<path d="M16.84 20.345H16.91C18.41 20.385 19.61 21.605 19.61 23.105C19.61 24.385 18.74 25.455 17.56 25.775V26.895C17.56 27.295 17.24 27.615 16.84 27.615C16.44 27.615 16.12 27.295 16.12 26.895V25.775C15.5324 25.617 15.0132 25.2699 14.6427 24.7873C14.2722 24.3047 14.0709 23.7135 14.07 23.105C14.07 22.705 14.39 22.385 14.79 22.385C15.19 22.385 15.51 22.705 15.51 23.105C15.51 23.845 16.1 24.435 16.83 24.435C17.56 24.435 18.16 23.835 18.16 23.105C18.16 22.375 17.56 21.775 16.83 21.775H16.76C16.0406 21.7555 15.3572 21.4563 14.8549 20.9409C14.3526 20.4255 14.071 19.7347 14.07 19.015C14.07 17.735 14.94 16.665 16.12 16.345V15.225C16.12 14.825 16.44 14.505 16.84 14.505C17.24 14.505 17.56 14.825 17.56 15.225V16.345C18.74 16.665 19.61 17.735 19.61 19.015C19.61 19.415 19.29 19.735 18.89 19.735C18.49 19.735 18.17 19.415 18.17 19.015C18.17 18.285 17.57 17.685 16.84 17.685C16.11 17.685 15.51 18.285 15.51 19.015C15.51 19.745 16.11 20.345 16.84 20.345Z" fill="white"/>
<path d="M11.532 6.1L14.318 9.36L14.017 9.696C8.283 10.982 4 16.103 4 22.225C4 27.607 8.368 31.975 13.75 31.975H19.92C25.302 31.975 29.67 27.608 29.67 22.226C29.68 16.103 25.397 10.982 19.663 9.696C19.6863 9.48469 19.6481 9.27114 19.553 9.081L21.923 6.368L22.076 6.132C22.2547 5.74233 22.3004 5.30476 22.2061 4.88658C22.1118 4.4684 21.8827 4.09278 21.5541 3.81747C21.2256 3.54217 20.8156 3.38244 20.3874 3.36284C19.9592 3.34324 19.5364 3.46486 19.184 3.709L18.341 2.709C18.1519 2.49738 17.9203 2.32799 17.6614 2.21185C17.4024 2.09572 17.1219 2.03545 16.8381 2.03498C16.5543 2.0345 16.2736 2.09384 16.0143 2.20911C15.7549 2.32439 15.5228 2.49301 15.333 2.704L14.45 3.69C14.0985 3.44079 13.6748 3.31432 13.2442 3.33015C12.8137 3.34599 12.4003 3.50325 12.0681 3.77761C11.7359 4.05197 11.5034 4.42814 11.4065 4.84795C11.3096 5.26775 11.3537 5.70779 11.532 6.1ZM15.331 7.485L13.635 5.525C14.029 5.71486 14.4748 5.76877 14.9028 5.6783C15.3307 5.58784 15.7165 5.35809 16 5.025L16.8 3.987L17.688 5.039C17.9649 5.36098 18.3384 5.58488 18.7528 5.67732C19.1673 5.76977 19.6005 5.72581 19.988 5.552L18.3 7.485H15.331ZM6 22.225C6 16.237 10.852 11.385 16.84 11.385C22.828 11.385 27.68 16.237 27.67 22.223V22.225C27.6692 24.2802 26.8524 26.251 25.3992 27.7042C23.946 29.1574 21.9752 29.9742 19.92 29.975H13.75C11.6948 29.9742 9.72404 29.1574 8.2708 27.7042C6.81757 26.251 6.0008 24.2802 6 22.225Z" fill="white"/>
</svg>
