<svg width="42" height="42" viewBox="0 0 42 42" fill="none" xmlns="http://www.w3.org/2000/svg">
<path d="M11.0954 32.4171C10.7883 32.4167 10.4939 32.2945 10.2767 32.0774C10.0596 31.8602 9.93739 31.5658 9.93701 31.2587C9.93366 31.0869 9.86304 30.9232 9.74033 30.8029C9.61762 30.6825 9.45261 30.6151 9.28074 30.6151C9.10888 30.6151 8.94387 30.6826 8.82117 30.8029C8.69846 30.9232 8.62786 31.0869 8.62451 31.2587C8.6263 31.798 8.8047 32.3218 9.13241 32.75C9.46013 33.1782 9.91911 33.4873 10.4391 33.6299C10.3937 34.115 10.5152 34.6165 11.0954 34.637C11.6727 34.6162 11.7981 34.1173 11.7516 33.6299C12.3279 33.4724 12.8274 33.1109 13.1572 32.6127C13.4869 32.1145 13.6245 31.5135 13.5442 30.9214C13.464 30.3294 13.1714 29.7867 12.721 29.3942C12.2705 29.0017 11.6928 28.7862 11.0954 28.7878C10.8662 28.7878 10.6423 28.7198 10.4518 28.5925C10.2613 28.4652 10.1128 28.2843 10.0251 28.0726C9.93747 27.8609 9.91455 27.628 9.95926 27.4032C10.004 27.1785 10.1143 26.9721 10.2763 26.8101C10.4383 26.6481 10.6448 26.5377 10.8695 26.493C11.0942 26.4483 11.3271 26.4713 11.5388 26.5589C11.7505 26.6466 11.9314 26.7951 12.0588 26.9856C12.1861 27.1761 12.254 27.4001 12.254 27.6292C12.2541 27.8032 12.3232 27.9702 12.4463 28.0932C12.5694 28.2163 12.7363 28.2854 12.9103 28.2854C13.0844 28.2854 13.2513 28.2163 13.3744 28.0932C13.4974 27.9701 13.5666 27.8032 13.5665 27.6291C13.5647 27.0899 13.3863 26.566 13.0585 26.1378C12.7307 25.7096 12.2717 25.4005 11.7516 25.258C11.797 24.7729 11.6754 24.2716 11.0954 24.2511C10.5183 24.2719 10.3926 24.7706 10.4392 25.258C9.86799 25.4206 9.37458 25.7836 9.04943 26.2806C8.72428 26.7775 8.5892 27.3751 8.66896 27.9635C8.74871 28.552 9.03797 29.092 9.48366 29.4845C9.92935 29.877 10.5016 30.0956 11.0955 30.1003C11.3998 30.1047 11.6902 30.2287 11.9039 30.4454C12.1176 30.6622 12.2374 30.9544 12.2374 31.2587C12.2374 31.5631 12.1176 31.8553 11.9039 32.072C11.6902 32.2888 11.3997 32.4127 11.0954 32.4171Z" fill="#EAEEEE"/>
<path d="M11.0954 37.9144C13.3411 37.9119 15.4942 37.0187 17.0822 35.4308C18.6702 33.8428 19.5635 31.6898 19.5661 29.4441C19.1006 18.2067 3.0886 18.2097 2.625 29.4441C2.62753 31.6898 3.52076 33.8428 5.10871 35.4308C6.69667 37.0187 8.84967 37.9119 11.0954 37.9144ZM11.0954 22.2859C12.9932 22.288 14.8127 23.0429 16.1546 24.3848C17.4966 25.7268 18.2514 27.5463 18.2536 29.4441C17.8604 38.9398 4.32933 38.9374 3.9375 29.444C3.93962 27.5463 4.69442 25.7268 6.03632 24.3849C7.37821 23.043 9.19761 22.2881 11.0954 22.2859Z" fill="#EAEEEE"/>
<path d="M30.9046 4.08554C28.6589 4.08804 26.5059 4.98125 24.9178 6.5692C23.3298 8.15715 22.4365 10.3102 22.434 12.5559C22.8994 23.7933 38.9114 23.7903 39.375 12.5558C39.3725 10.3101 38.4793 8.15715 36.8913 6.56921C35.3033 4.98126 33.1503 4.08805 30.9046 4.08554ZM38.0293 11.8997H34.8278C34.837 9.78995 34.3316 7.70981 33.3555 5.83947C34.6276 6.3047 35.7418 7.1209 36.569 8.19348C37.3962 9.26605 37.9025 10.5511 38.0293 11.8997ZM30.9046 19.7141C29.7328 19.7141 28.4314 16.9748 28.2934 13.2122H33.5159C33.3779 16.9748 32.0765 19.7141 30.9046 19.7141ZM28.2934 11.8997C28.4315 8.13728 29.7328 5.39804 30.9046 5.39804C32.0765 5.39804 33.3778 8.13728 33.5159 11.8997H28.2934ZM28.4539 5.83936C27.4777 7.70972 26.9723 9.7899 26.9815 11.8997H23.7797C23.9064 10.551 24.4128 9.26592 25.2401 8.19332C26.0674 7.12071 27.1817 6.30452 28.4539 5.83936ZM23.7797 13.2122H26.9815C26.9723 15.322 27.4777 17.4023 28.454 19.2727C27.1817 18.8075 26.0674 17.9913 25.2401 16.9187C24.4128 15.846 23.9064 14.5608 23.7797 13.2122ZM33.3554 19.2727C34.3316 17.4022 34.837 15.322 34.8278 13.2122H38.0293C37.9026 14.5608 37.3963 15.8459 36.5691 16.9185C35.7418 17.9912 34.6276 18.8074 33.3554 19.2727Z" fill="#EAEEEE"/>
<path d="M29.5415 29.4175H22.9197C22.7474 29.4202 22.5831 29.4905 22.4622 29.6133C22.3413 29.7361 22.2736 29.9015 22.2736 30.0738C22.2736 30.2461 22.3414 30.4115 22.4623 30.5343C22.5831 30.657 22.7475 30.7273 22.9198 30.73H29.5415C30.0769 30.7294 30.5902 30.5165 30.9688 30.1379C31.3473 29.7593 31.5603 29.246 31.5609 28.7106V25.6089L31.9528 26.0008C32.0758 26.1238 32.2428 26.1929 32.4168 26.1929C32.5908 26.1929 32.7577 26.1238 32.8808 26.0007C33.0038 25.8777 33.073 25.7108 33.073 25.5367C33.073 25.3627 33.0038 25.1958 32.8808 25.0727L31.3688 23.5608C31.244 23.4398 31.0767 23.3725 30.9029 23.3731C30.729 23.3737 30.5623 23.4422 30.4383 23.5641C29.8381 24.176 29.1538 24.8714 29.0032 25.008C28.8919 25.09 28.8093 25.205 28.7671 25.3367C28.725 25.4683 28.7256 25.61 28.7687 25.7413C28.8118 25.8727 28.8953 25.9871 29.0073 26.0682C29.1193 26.1493 29.254 26.1929 29.3922 26.193C29.6089 26.193 29.6814 26.1872 30.2484 25.6274V28.7106C30.2482 28.898 30.1736 29.0777 30.0411 29.2102C29.9086 29.3427 29.7289 29.4173 29.5415 29.4175Z" fill="#EAEEEE"/>
<path d="M12.4434 12.5264H19.0652C19.2376 12.5239 19.402 12.4536 19.523 12.3308C19.644 12.208 19.7118 12.0425 19.7118 11.8702C19.7118 11.6978 19.644 11.5323 19.523 11.4095C19.402 11.2867 19.2375 11.2165 19.0652 11.2139H12.4434C11.9081 11.2145 11.3948 11.4274 11.0163 11.8059C10.6377 12.1844 10.4247 12.6976 10.4241 13.233V16.3349L10.0322 15.9429C9.97128 15.8818 9.89893 15.8332 9.81927 15.8001C9.7396 15.767 9.65418 15.7498 9.5679 15.7498C9.48161 15.7497 9.39616 15.7666 9.31643 15.7996C9.23669 15.8326 9.16425 15.8809 9.10323 15.9419C9.04222 16.003 8.99384 16.0754 8.96086 16.1551C8.92788 16.2349 8.91095 16.3203 8.91104 16.4066C8.91113 16.4929 8.92824 16.5783 8.96138 16.658C8.99452 16.7376 9.04305 16.81 9.10419 16.8709L10.6161 18.3831C10.741 18.504 10.9082 18.5714 11.0821 18.5708C11.2559 18.5701 11.4226 18.5016 11.5467 18.3798C12.1468 17.7676 12.8311 17.0722 12.9817 16.9353C13.0931 16.8533 13.1757 16.7383 13.2177 16.6067C13.2598 16.475 13.2593 16.3334 13.2162 16.2021C13.1731 16.0708 13.0896 15.9565 12.9776 15.8754C12.8657 15.7943 12.731 15.7507 12.5928 15.7507C12.3761 15.7507 12.3035 15.7564 11.7366 16.3164V13.233C11.7368 13.0456 11.8114 12.866 11.9439 12.7336C12.0764 12.6011 12.2561 12.5266 12.4434 12.5264Z" fill="#EAEEEE"/>
</svg>
