<svg width="42" height="42" viewBox="0 0 42 42" fill="none" xmlns="http://www.w3.org/2000/svg">
<g id="mingcute:exchange-bitcoin-2-line" clip-path="url(#clip0_28_752)">
<g id="Group">
<path id="Vector" d="M3.49999 21.14C3.48949 19.6315 5.09249 18.767 6.33149 19.4338L6.49774 19.5353L11.1842 22.6923C12.8852 23.8385 11.844 26.4425 9.89974 26.2045L9.69499 26.1695L7.83474 25.76C8.78026 28.376 10.4834 30.6511 12.7271 32.2953C14.9708 33.9395 17.6533 34.8782 20.4326 34.9918C23.2119 35.1054 25.9621 34.3887 28.3324 32.9331C30.7028 31.4775 32.5859 29.3489 33.7417 26.8188C33.9404 26.4069 34.2924 26.0891 34.7225 25.9335C35.1525 25.7779 35.6264 25.7968 36.0427 25.9861C36.4589 26.1755 36.7845 26.5203 36.9498 26.9468C37.115 27.3732 37.1067 27.8474 36.9267 28.2678C33.4495 35.9153 24.8587 40.1555 16.4745 37.9085C12.7754 36.9175 9.50334 34.7407 7.15984 31.712C4.81634 28.6832 3.53071 24.9695 3.49999 21.14ZM21 10.5C21.4641 10.5 21.9092 10.6844 22.2374 11.0126C22.5656 11.3408 22.75 11.7859 22.75 12.25V14H24.5C25.3125 14 26.1089 14.2263 26.8001 14.6534C27.4912 15.0806 28.0498 15.6918 28.4131 16.4185C28.7765 17.1452 28.9303 17.9587 28.8573 18.7679C28.7843 19.5771 28.4875 20.35 28 21C28.4875 21.65 28.7843 22.4229 28.8573 23.2321C28.9303 24.0413 28.7765 24.8549 28.4131 25.5816C28.0498 26.3083 27.4912 26.9195 26.8001 27.3466C26.1089 27.7738 25.3125 28 24.5 28H22.75V29.75C22.75 30.2142 22.5656 30.6593 22.2374 30.9875C21.9092 31.3157 21.4641 31.5 21 31.5C20.5359 31.5 20.0907 31.3157 19.7626 30.9875C19.4344 30.6593 19.25 30.2142 19.25 29.75V28H15.925C15.4144 28 14.9248 27.7972 14.5638 27.4362C14.2028 27.0752 14 26.5856 14 26.075V15.925C14 15.4145 14.2028 14.9249 14.5638 14.5639C14.9248 14.2028 15.4144 14 15.925 14H19.25V12.25C19.25 11.7859 19.4344 11.3408 19.7626 11.0126C20.0907 10.6844 20.5359 10.5 21 10.5ZM24.5 22.75H17.5V24.5H24.5C24.7321 24.5 24.9546 24.4078 25.1187 24.2438C25.2828 24.0797 25.375 23.8571 25.375 23.625C25.375 23.393 25.2828 23.1704 25.1187 23.0063C24.9546 22.8422 24.7321 22.75 24.5 22.75ZM5.08024 13.741C8.55749 6.09353 17.1482 1.85503 25.5325 4.10028C29.2314 5.09099 32.5035 7.26739 34.847 10.2959C37.1905 13.3244 38.4762 17.0378 38.507 20.867C38.5192 22.3773 36.9145 23.2435 35.6772 22.575L35.5092 22.4735L30.8227 19.3165C29.1217 18.1703 30.163 15.5663 32.1072 15.8043L32.312 15.8393L34.1722 16.2488C33.2267 13.6328 31.5235 11.3577 29.2799 9.71349C27.0362 8.06931 24.3537 7.13058 21.5744 7.017C18.7951 6.90342 16.0449 7.62013 13.6746 9.07574C11.3042 10.5314 9.42107 12.6599 8.26524 15.19C8.17349 15.4043 8.03985 15.5982 7.87216 15.7601C7.70448 15.922 7.50612 16.0489 7.28875 16.1331C7.07138 16.2173 6.83937 16.2573 6.60635 16.2506C6.37332 16.2439 6.14398 16.1907 5.93179 16.0942C5.7196 15.9977 5.52883 15.8597 5.37069 15.6884C5.21255 15.5171 5.09023 15.316 5.0109 15.0968C4.93158 14.8776 4.89685 14.6447 4.90876 14.4119C4.92066 14.1791 4.97897 13.951 5.08024 13.741ZM24.5 17.5H17.5V19.25H24.5C24.7321 19.25 24.9546 19.1578 25.1187 18.9938C25.2828 18.8297 25.375 18.6071 25.375 18.375C25.375 18.143 25.2828 17.9204 25.1187 17.7563C24.9546 17.5922 24.7321 17.5 24.5 17.5Z" fill="white"/>
</g>
</g>
<defs>
<clipPath id="clip0_28_752">
<rect width="42" height="42" fill="white"/>
</clipPath>
</defs>
</svg>
