<svg width="44" height="44" viewBox="0 0 44 44" fill="none" xmlns="http://www.w3.org/2000/svg">
<g id="game-icons:receive-money">
<path id="Vector" d="M22.1719 1.88123C22.1289 1.88123 22.0688 1.88123 22.0172 1.89154C21.6219 1.96459 21.1492 2.32982 20.8398 3.16427C20.5133 3.99787 20.4445 5.18638 20.7281 6.45912C21.0203 7.71638 21.6219 8.80005 22.2922 9.46177C22.9453 10.1235 23.5383 10.304 23.9336 10.2352C24.3461 10.1751 24.8016 9.79693 25.1109 8.97193C25.4375 8.14349 25.5234 6.93865 25.2313 5.67623C24.9305 4.40435 24.3375 3.33099 23.6672 2.67357C23.1 2.08919 22.5758 1.88123 22.1719 1.88123ZM32.0891 13.011C31.1437 13.0368 29.9492 13.286 28.7891 13.7758C27.4484 14.3602 26.4172 15.1422 25.85 15.8813C25.2828 16.5946 25.2313 17.136 25.4117 17.454C25.6008 17.7719 26.125 18.0727 27.1305 18.1157C28.1359 18.1758 29.4938 17.9266 30.8258 17.3594C32.1578 16.7836 33.2062 15.993 33.7734 15.2711C34.3406 14.5579 34.3836 13.9993 34.2031 13.6813C34.0227 13.3547 33.4898 13.0711 32.4844 13.0368C32.3469 13.011 32.2266 13.011 32.0891 13.011ZM20.3758 20.9946C19.8086 21.0032 19.293 21.0719 18.8289 21.1922C17.8148 21.4501 17.2305 21.9141 17.0414 22.4727C16.8266 23.0313 17.0414 23.7016 17.7117 24.4235C18.4164 25.1282 19.5766 25.8071 21.0203 26.1852C22.4555 26.5633 23.8391 26.5547 24.8703 26.2797C25.9102 26.0133 26.4945 25.5407 26.6836 24.9907C26.8813 24.4321 26.6836 23.7704 25.9875 23.0399C25.3086 22.3352 24.1484 21.6563 22.7047 21.2868C21.8883 21.0719 21.0891 20.986 20.3758 20.9946ZM34.1859 25.9876L28.875 28.5055C29.2359 28.5227 30.1383 28.5485 30.1383 28.5485L30.7055 29.2961L35.4062 26.8469L34.1859 25.9876ZM29.5023 25.9961L24.5695 28.3336C25.0422 28.3594 26.1594 28.3766 26.6063 28.4024L30.8859 26.3743L29.5023 25.9961ZM37.4602 26.9243L31.4016 30.1383L32.6477 31.7454L39.05 27.9126L37.4602 26.9243ZM13.5008 27.7063C13.2406 27.7058 12.9811 27.7347 12.7273 27.7922C6.58281 29.2102 2.95625 29.3305 1.88203 29.3305H1.54688V38.5688C1.54688 38.5688 2.54375 38.4227 4.20234 38.4141C7.40781 38.4141 13.0539 38.9641 18.5539 42.1782C18.8461 42.3586 19.4734 42.4274 20.2555 42.4274C22.3438 42.4274 25.5148 41.929 26.2453 41.654C33.6016 38.8954 42.4531 31.3243 42.4531 31.3243L39.6602 28.8836C39.6602 28.8836 32.8023 33.2579 31.9344 33.679C24.1055 37.5204 17.7633 35.1227 17.7633 35.1227C17.7633 35.1227 28.0672 35.3805 31.3758 32.7766L29.4336 29.8547C29.4336 29.8547 22.318 29.6571 19.7828 29.3219C18.4594 29.1501 15.5977 27.7063 13.5008 27.7063Z" fill="white"/>
</g>
</svg>
