<svg width="39" height="39" viewBox="0 0 39 39" fill="none" xmlns="http://www.w3.org/2000/svg">
<g id="coin_447005" clip-path="url(#clip0_28_756)">
<g id="Group">
<g id="Group_2">
<path id="Vector" d="M19.5 8.21472C25.175 8.21472 29.2823 10.5312 29.2823 12.6325C29.2823 14.7144 25.2103 17.0504 19.5 17.0504C13.7773 17.0504 9.7177 14.7091 9.7177 12.6325C9.7177 10.5279 13.8344 8.21472 19.5 8.21472Z" fill="white"/>
</g>
</g>
<g id="Group_3">
<g id="Group_4">
<g id="Group_5">
<path id="Vector_2" d="M29.2823 17.113C29.1061 17.2384 29.0846 17.2527 29.2823 17.1121V17.113Z" fill="white"/>
<path id="Vector_3" d="M9.7177 17.113V17.1121C9.89419 17.2359 9.87979 17.2268 9.7177 17.113Z" fill="white"/>
</g>
</g>
</g>
<g id="Group_6">
<g id="Group_7">
<path id="Vector_4" d="M16.5857 5.91054C12.1277 6.50042 7.22559 8.75305 7.22559 12.6322V13.2652C2.93315 12.7063 0.00129318 10.7814 0.00129318 9.00929C0.00129318 5.54644 9.93395 2.85811 16.5857 5.91054Z" fill="white"/>
</g>
</g>
<g id="Group_8">
<g id="Group_9">
<path id="Vector_5" d="M9.7177 17.1121C12.4303 19.0162 16.1954 19.7344 19.5 19.7344C22.8046 19.7344 26.5697 19.0164 29.2823 17.1121C29.2823 21.5108 29.2988 21.3624 29.2572 21.6041C28.8255 24.1093 24.1745 25.6048 19.5001 25.6691C14.8256 25.6047 10.1747 24.1093 9.74292 21.6041C9.70133 21.3625 9.7177 21.5108 9.7177 17.1121Z" fill="white"/>
</g>
</g>
<g id="Group_10">
<g id="Group_11">
<path id="Vector_6" d="M9.7177 25.7976C12.3376 27.66 16.1529 28.4199 19.5 28.4199C22.8471 28.4199 26.6623 27.6601 29.2823 25.7976C29.2823 30.2284 29.2981 30.049 29.2572 30.2906C28.7335 33.1193 22.9448 34.4213 19.5001 34.4213C16.0554 34.4213 10.2667 33.1194 9.74292 30.2906C9.70194 30.0491 9.7177 30.2284 9.7177 25.7976Z" fill="white"/>
</g>
</g>
<g id="Group_12">
<g id="Group_13">
<path id="Vector_7" d="M0.00129557 22.1743C2.00469 23.5963 4.8699 24.4185 7.22559 24.6525C7.22559 30.5097 7.20868 30.2191 7.27541 30.6431C3.55768 30.1778 0.346278 28.5243 0.0262036 26.6671C-0.00837851 26.4655 0.00129557 26.7284 0.00129557 22.1743Z" fill="white"/>
</g>
</g>
<g id="Group_14">
<g id="Group_15">
<path id="Vector_8" d="M0.00129223 13.4888C2.00758 14.9215 4.75503 15.6867 7.22559 15.9678V21.9509C2.61894 21.2593 0.0994773 19.4329 0.00548124 17.8096C-0.000841141 17.7162 0.00129223 17.8464 0.00129223 13.4888Z" fill="white"/>
</g>
</g>
<g id="Group_16">
<g id="Group_17">
<path id="Vector_9" d="M38.9988 9.00929C38.9988 10.7814 36.0669 12.7064 31.7745 13.2652V12.6322C31.7745 8.75305 26.8724 6.50034 22.4143 5.91054C29.066 2.85811 38.9988 5.54644 38.9988 9.00929Z" fill="white"/>
</g>
</g>
<g id="Group_18">
<g id="Group_19">
<path id="Vector_10" d="M31.7745 24.6525C34.1302 24.4186 36.9954 23.5964 38.9988 22.1743C38.9988 26.7284 39.0085 26.4655 38.9739 26.6671C38.6538 28.5243 35.4424 30.1778 31.7247 30.6431C31.7914 30.2191 31.7745 30.5097 31.7745 24.6525Z" fill="white"/>
</g>
</g>
<g id="Group_20">
<g id="Group_21">
<path id="Vector_11" d="M38.9988 13.4888C38.9988 17.8464 39.0008 17.7162 38.9946 17.8095C38.9005 19.4328 36.3811 21.2593 31.7745 21.9509V15.9677C34.245 15.6867 36.9925 14.9215 38.9988 13.4888Z" fill="white"/>
</g>
</g>
</g>
<defs>
<clipPath id="clip0_28_756">
<rect width="39" height="39" fill="white" transform="matrix(-1 0 0 1 39 0)"/>
</clipPath>
</defs>
</svg>
