<svg width="169" height="215" viewBox="0 0 169 215" fill="none" xmlns="http://www.w3.org/2000/svg">
<g id="Group">
<path id="Vector" d="M57.5459 207.005C58.015 207.005 58.015 206.28 57.5459 206.28C57.0768 206.28 57.0768 207.005 57.5459 207.005Z" fill="white"/>
<path id="Vector_2" d="M61.8835 203.646C62.3526 203.646 62.3526 202.921 61.8835 202.921C61.4145 202.921 61.4145 203.646 61.8835 203.646Z" fill="white"/>
<path id="Vector_3" d="M44.0444 209.877C44.5135 209.877 44.5135 209.152 44.0444 209.152C43.5754 209.152 43.5754 209.877 44.0444 209.877Z" fill="white"/>
<path id="Vector_4" d="M38.73 215.005C39.199 215.005 39.199 214.28 38.73 214.28C38.2609 214.28 38.2609 215.005 38.73 215.005Z" fill="white"/>
<path id="Vector_5" d="M71.9321 201.968C72.4012 201.968 72.4012 201.243 71.9321 201.243C71.4631 201.243 71.4631 201.968 71.9321 201.968Z" fill="white"/>
<path id="Vector_6" d="M70.5539 198.029C71.023 198.029 71.023 197.304 70.5539 197.304C70.0849 197.304 70.0849 198.029 70.5539 198.029Z" fill="white"/>
<path id="Vector_7" d="M70.4669 191.803C70.936 191.803 70.936 191.078 70.4669 191.078C69.9978 191.078 69.9978 191.803 70.4669 191.803Z" fill="white"/>
<path id="Vector_8" d="M76.144 194.916C76.6131 194.916 76.6131 194.191 76.144 194.191C75.675 194.191 75.675 194.916 76.144 194.916Z" fill="white"/>
<path id="Vector_9" d="M93.7365 194.089C94.2056 194.089 94.2056 193.364 93.7365 193.364C93.2674 193.364 93.2674 194.089 93.7365 194.089Z" fill="white"/>
<path id="Vector_10" d="M95.2936 197.753C95.7627 197.753 95.7627 197.028 95.2936 197.028C94.8246 197.028 94.8246 197.753 95.2936 197.753Z" fill="white"/>
<path id="Vector_11" d="M101.89 201.417C102.359 201.417 102.359 200.692 101.89 200.692C101.42 200.692 101.42 201.417 101.89 201.417Z" fill="white"/>
<path id="Vector_12" d="M101.89 209.659C102.359 209.659 102.359 208.934 101.89 208.934C101.42 208.934 101.42 209.659 101.89 209.659Z" fill="white"/>
<path id="Vector_13" d="M120.033 201.756C120.502 201.756 120.502 201.031 120.033 201.031C119.564 201.031 119.564 201.756 120.033 201.756Z" fill="white"/>
<path id="Vector_14" d="M120.889 211.158C121.358 211.158 121.358 210.433 120.889 210.433C120.42 210.433 120.42 211.158 120.889 211.158Z" fill="white"/>
<path id="Vector_15" d="M80.5107 181.666C80.9798 181.666 80.9798 180.941 80.5107 180.941C80.0417 180.941 80.0417 181.666 80.5107 181.666Z" fill="white"/>
<path id="Vector_16" d="M83.2623 185.698C83.7314 185.698 83.7314 184.973 83.2623 184.973C82.7933 184.973 82.7933 185.698 83.2623 185.698Z" fill="white"/>
<path id="Vector_17" d="M79.7806 173.608C80.2497 173.608 80.2497 172.883 79.7806 172.883C79.3116 172.883 79.3116 173.608 79.7806 173.608Z" fill="white"/>
<path id="Vector_18" d="M78.8618 166.464C79.3309 166.464 79.3309 165.739 78.8618 165.739C78.3927 165.739 78.3927 166.464 78.8618 166.464Z" fill="white"/>
<path id="Vector_19" d="M73.7939 172.627C74.263 172.627 74.263 171.902 73.7939 171.902C73.3249 171.902 73.3249 172.627 73.7939 172.627Z" fill="white"/>
<path id="Vector_20" d="M66.463 145.944C66.9321 145.944 66.9321 145.219 66.463 145.219C65.9939 145.219 65.9939 145.944 66.463 145.944Z" fill="white"/>
<path id="Vector_21" d="M60.2345 143.687C60.7036 143.687 60.7036 142.962 60.2345 142.962C59.7654 142.962 59.7654 143.687 60.2345 143.687Z" fill="white"/>
<path id="Vector_22" d="M82.0098 136.069C82.4788 136.069 82.4788 135.344 82.0098 135.344C81.5407 135.344 81.5407 136.069 82.0098 136.069Z" fill="white"/>
<path id="Vector_23" d="M76.8307 136.755C77.2997 136.755 77.2997 136.03 76.8307 136.03C76.3616 136.03 76.3616 136.755 76.8307 136.755Z" fill="white"/>
<path id="Vector_24" d="M80.5447 145.732C81.0137 145.732 81.0137 145.006 80.5447 145.006C80.0756 145.006 80.0756 145.732 80.5447 145.732Z" fill="white"/>
<path id="Vector_25" d="M77.6094 150.769C78.0784 150.769 78.0784 150.043 77.6094 150.043C77.1403 150.043 77.1403 150.769 77.6094 150.769Z" fill="white"/>
<path id="Vector_26" d="M78.5281 154.157C78.9971 154.157 78.9971 153.432 78.5281 153.432C78.059 153.432 78.059 154.157 78.5281 154.157Z" fill="white"/>
<path id="Vector_27" d="M89.6164 122.133C90.0855 122.133 90.0855 121.408 89.6164 121.408C89.1474 121.408 89.1474 122.133 89.6164 122.133Z" fill="white"/>
<path id="Vector_28" d="M102.808 120.301C103.277 120.301 103.277 119.576 102.808 119.576C102.339 119.576 102.339 120.301 102.808 120.301Z" fill="white"/>
<path id="Vector_29" d="M112.949 119.324C113.418 119.324 113.418 118.599 112.949 118.599C112.48 118.599 112.48 119.324 112.949 119.324Z" fill="white"/>
<path id="Vector_30" d="M117.712 114.93C118.181 114.93 118.181 114.205 117.712 114.205C117.243 114.205 117.243 114.93 117.712 114.93Z" fill="white"/>
<path id="Vector_31" d="M122.964 117.98C123.433 117.98 123.433 117.255 122.964 117.255C122.495 117.255 122.495 117.98 122.964 117.98Z" fill="white"/>
<path id="Vector_32" d="M125.531 114.442C126.001 114.442 126.001 113.717 125.531 113.717C125.062 113.717 125.062 114.442 125.531 114.442Z" fill="white"/>
<path id="Vector_33" d="M128.708 103.692C129.178 103.692 129.178 102.967 128.708 102.967C128.239 102.967 128.239 103.692 128.708 103.692Z" fill="white"/>
<path id="Vector_34" d="M121.745 100.153C122.214 100.153 122.214 99.428 121.745 99.428C121.276 99.428 121.276 100.153 121.745 100.153Z" fill="white"/>
<path id="Vector_35" d="M107.692 100.762C108.162 100.762 108.162 100.037 107.692 100.037C107.223 100.037 107.223 100.762 107.692 100.762Z" fill="white"/>
<path id="Vector_36" d="M99.9988 101.985C100.468 101.985 100.468 101.26 99.9988 101.26C99.5297 101.26 99.5297 101.985 99.9988 101.985Z" fill="white"/>
<path id="Vector_37" d="M97.6777 107.844C98.1467 107.844 98.1467 107.119 97.6777 107.119C97.2086 107.119 97.2086 107.844 97.6777 107.844Z" fill="white"/>
<path id="Vector_38" d="M93.6446 111.266C94.1137 111.266 94.1137 110.541 93.6446 110.541C93.1756 110.541 93.1756 111.266 93.6446 111.266Z" fill="white"/>
<path id="Vector_39" d="M113.926 95.2661C114.395 95.2661 114.395 94.541 113.926 94.541C113.457 94.541 113.457 95.2661 113.926 95.2661Z" fill="white"/>
<path id="Vector_40" d="M80.206 125.429C80.6751 125.429 80.6751 124.704 80.206 124.704C79.737 124.704 79.737 125.429 80.206 125.429Z" fill="white"/>
<path id="Vector_41" d="M77.029 126.164C77.4981 126.164 77.4981 125.439 77.029 125.439C76.56 125.439 76.56 126.164 77.029 126.164Z" fill="white"/>
<path id="Vector_42" d="M79.9643 111.387C80.4334 111.387 80.4334 110.662 79.9643 110.662C79.4953 110.662 79.4953 111.387 79.9643 111.387Z" fill="white"/>
<path id="Vector_43" d="M82.5272 105.77C82.9963 105.77 82.9963 105.045 82.5272 105.045C82.0581 105.045 82.0581 105.77 82.5272 105.77Z" fill="white"/>
<path id="Vector_44" d="M76.6664 101.985C77.1354 101.985 77.1354 101.26 76.6664 101.26C76.1973 101.26 76.1973 101.985 76.6664 101.985Z" fill="white"/>
<path id="Vector_45" d="M80.5736 95.1452C81.0427 95.1452 81.0427 94.4202 80.5736 94.4202C80.1045 94.4202 80.1045 95.1452 80.5736 95.1452Z" fill="white"/>
<path id="Vector_46" d="M83.8716 86.2317C84.3406 86.2317 84.3406 85.5066 83.8716 85.5066C83.4025 85.5066 83.4025 86.2317 83.8716 86.2317Z" fill="white"/>
<path id="Vector_47" d="M87.2953 79.0244C87.7643 79.0244 87.7643 78.2993 87.2953 78.2993C86.8262 78.2993 86.8262 79.0244 87.2953 79.0244Z" fill="white"/>
<path id="Vector_48" d="M93.4028 76.0951C93.8719 76.0951 93.8719 75.37 93.4028 75.37C92.9338 75.37 92.9338 76.0951 93.4028 76.0951Z" fill="white"/>
<path id="Vector_49" d="M98.9011 74.8721C99.3701 74.8721 99.3701 74.147 98.9011 74.147C98.432 74.147 98.432 74.8721 98.9011 74.8721Z" fill="white"/>
<path id="Vector_50" d="M101.464 69.2551C101.933 69.2551 101.933 68.53 101.464 68.53C100.995 68.53 100.995 69.2551 101.464 69.2551Z" fill="white"/>
<path id="Vector_51" d="M108.916 64.8612C109.385 64.8612 109.385 64.1361 108.916 64.1361C108.447 64.1361 108.447 64.8612 108.916 64.8612Z" fill="white"/>
<path id="Vector_52" d="M116.368 56.7983C116.837 56.7983 116.837 56.0732 116.368 56.0732C115.899 56.0732 115.899 56.7983 116.368 56.7983Z" fill="white"/>
<path id="Vector_53" d="M115.27 60.2207C115.739 60.2207 115.739 59.4956 115.27 59.4956C114.801 59.4956 114.801 60.2207 115.27 60.2207Z" fill="white"/>
<path id="Vector_54" d="M129.564 54.3573C130.034 54.3573 130.034 53.6322 129.564 53.6322C129.095 53.6322 129.095 54.3573 129.564 54.3573Z" fill="white"/>
<path id="Vector_55" d="M131.639 50.8141C132.108 50.8141 132.108 50.089 131.639 50.089C131.17 50.089 131.17 50.8141 131.639 50.8141Z" fill="white"/>
<path id="Vector_56" d="M134.207 46.7875C134.676 46.7875 134.676 46.0624 134.207 46.0624C133.738 46.0624 133.738 46.7875 134.207 46.7875Z" fill="white"/>
<path id="Vector_57" d="M139.947 48.7402C140.416 48.7402 140.416 48.0151 139.947 48.0151C139.478 48.0151 139.478 48.7402 139.947 48.7402Z" fill="white"/>
<path id="Vector_58" d="M143.733 44.5881C144.202 44.5881 144.202 43.863 143.733 43.863C143.264 43.863 143.264 44.5881 143.733 44.5881Z" fill="white"/>
<path id="Vector_59" d="M154.609 40.8032C155.078 40.8032 155.078 40.0781 154.609 40.0781C154.14 40.0781 154.14 40.8032 154.609 40.8032Z" fill="white"/>
<path id="Vector_60" d="M160.102 37.139C160.571 37.139 160.571 36.4139 160.102 36.4139C159.633 36.4139 159.633 37.139 160.102 37.139Z" fill="white"/>
<path id="Vector_61" d="M168.289 35.1861C168.758 35.1861 168.758 34.4611 168.289 34.4611C167.82 34.4611 167.82 35.1861 168.289 35.1861Z" fill="white"/>
<path id="Vector_62" d="M75.0754 77.4388C75.5445 77.4388 75.5445 76.7137 75.0754 76.7137C74.6064 76.7137 74.6064 77.4388 75.0754 77.4388Z" fill="white"/>
<path id="Vector_63" d="M71.7775 73.2866C72.2465 73.2866 72.2465 72.5615 71.7775 72.5615C71.3084 72.5615 71.3084 73.2866 71.7775 73.2866Z" fill="white"/>
<path id="Vector_64" d="M62.6138 67.9114C63.0828 67.9114 63.0828 67.1863 62.6138 67.1863C62.1447 67.1863 62.1447 67.9114 62.6138 67.9114Z" fill="white"/>
<path id="Vector_65" d="M58.4598 61.927C58.9289 61.927 58.9289 61.2019 58.4598 61.2019C57.9908 61.2019 57.9908 61.927 58.4598 61.927Z" fill="white"/>
<path id="Vector_66" d="M50.0311 61.927C50.5002 61.927 50.5002 61.2019 50.0311 61.2019C49.5621 61.2019 49.5621 61.927 50.0311 61.927Z" fill="white"/>
<path id="Vector_67" d="M41.4816 63.2709C41.9506 63.2709 41.9506 62.5458 41.4816 62.5458C41.0125 62.5458 41.0125 63.2709 41.4816 63.2709Z" fill="white"/>
<path id="Vector_68" d="M27.6755 65.4703C28.1446 65.4703 28.1446 64.7452 27.6755 64.7452C27.2065 64.7452 27.2065 65.4703 27.6755 65.4703Z" fill="white"/>
<path id="Vector_69" d="M22.7915 71.0871C23.2606 71.0871 23.2606 70.3621 22.7915 70.3621C22.3224 70.3621 22.3224 71.0871 22.7915 71.0871Z" fill="white"/>
<path id="Vector_70" d="M64.5721 66.6932C65.0412 66.6932 65.0412 65.9681 64.5721 65.9681C64.1031 65.9681 64.1031 66.6932 64.5721 66.6932Z" fill="white"/>
<path id="Vector_71" d="M75.4429 49.9634C75.9119 49.9634 75.9119 49.2383 75.4429 49.2383C74.9738 49.2383 74.9738 49.9634 75.4429 49.9634Z" fill="white"/>
<path id="Vector_72" d="M73.0008 42.0212C73.4699 42.0212 73.4699 41.2961 73.0008 41.2961C72.5318 41.2961 72.5318 42.0212 73.0008 42.0212Z" fill="white"/>
<path id="Vector_73" d="M74.7079 56.9241C75.1769 56.9241 75.1769 56.199 74.7079 56.199C74.2388 56.199 74.2388 56.9241 74.7079 56.9241Z" fill="white"/>
<path id="Vector_74" d="M83.504 45.1971C83.9731 45.1971 83.9731 44.472 83.504 44.472C83.035 44.472 83.035 45.1971 83.504 45.1971Z" fill="white"/>
<path id="Vector_75" d="M82.8948 51.5488C83.3638 51.5488 83.3638 50.8237 82.8948 50.8237C82.4257 50.8237 82.4257 51.5488 82.8948 51.5488Z" fill="white"/>
<path id="Vector_76" d="M82.0388 60.0951C82.5079 60.0951 82.5079 59.37 82.0388 59.37C81.5697 59.37 81.5697 60.0951 82.0388 60.0951Z" fill="white"/>
<path id="Vector_77" d="M78.62 70.3573C79.0891 70.3573 79.0891 69.6322 78.62 69.6322C78.1509 69.6322 78.1509 70.3573 78.62 70.3573Z" fill="white"/>
<path id="Vector_78" d="M87.658 38.8503C88.127 38.8503 88.127 38.1252 87.658 38.1252C87.1889 38.1252 87.1889 38.8503 87.658 38.8503Z" fill="white"/>
<path id="Vector_79" d="M89.249 32.1312C89.718 32.1312 89.718 31.4061 89.249 31.4061C88.7799 31.4061 88.7799 32.1312 89.249 32.1312Z" fill="white"/>
<path id="Vector_80" d="M92.5469 28.7137C93.016 28.7137 93.016 27.9886 92.5469 27.9886C92.0779 27.9886 92.0779 28.7137 92.5469 28.7137Z" fill="white"/>
<path id="Vector_81" d="M87.658 11.4955C88.127 11.4955 88.127 10.7704 87.658 10.7704C87.1889 10.7704 87.1889 11.4955 87.658 11.4955Z" fill="white"/>
<path id="Vector_82" d="M93.8912 4.28819C94.3603 4.28819 94.3603 3.56311 93.8912 3.56311C93.4222 3.56311 93.4222 4.28819 93.8912 4.28819Z" fill="white"/>
<path id="Vector_83" d="M104.883 0.991557C105.352 0.991557 105.352 0.266479 104.883 0.266479C104.414 0.266479 104.414 0.991557 104.883 0.991557Z" fill="white"/>
<path id="Vector_84" d="M105.371 4.40904C105.84 4.40904 105.84 3.68396 105.371 3.68396C104.902 3.68396 104.902 4.40904 105.371 4.40904Z" fill="white"/>
<path id="Vector_85" d="M103.906 28.0998C104.375 28.0998 104.375 27.3748 103.906 27.3748C103.437 27.3748 103.437 28.0998 103.906 28.0998Z" fill="white"/>
<path id="Vector_86" d="M108.307 26.3934C108.776 26.3934 108.776 25.6683 108.307 25.6683C107.838 25.6683 107.838 26.3934 108.307 26.3934Z" fill="white"/>
<path id="Vector_87" d="M109.037 29.8109C109.506 29.8109 109.506 29.0858 109.037 29.0858C108.568 29.0858 108.568 29.8109 109.037 29.8109Z" fill="white"/>
<path id="Vector_88" d="M105.129 32.9868C105.599 32.9868 105.599 32.2617 105.129 32.2617C104.66 32.2617 104.66 32.9868 105.129 32.9868Z" fill="white"/>
<path id="Vector_89" d="M115.27 17.2333C115.739 17.2333 115.739 16.5082 115.27 16.5082C114.801 16.5082 114.801 17.2333 115.27 17.2333Z" fill="white"/>
<path id="Vector_90" d="M115.391 4.77647C115.86 4.77647 115.86 4.05139 115.391 4.05139C114.922 4.05139 114.922 4.77647 115.391 4.77647Z" fill="white"/>
<path id="Vector_91" d="M19.7497 83.6794C20.2188 83.6794 20.2188 82.9543 19.7497 82.9543C19.2807 82.9543 19.2807 83.6794 19.7497 83.6794Z" fill="white"/>
<path id="Vector_92" d="M15.4894 84.8251C15.9584 84.8251 15.9584 84.1 15.4894 84.1C15.0203 84.1 15.0203 84.8251 15.4894 84.8251Z" fill="white"/>
<path id="Vector_93" d="M11.5968 99.4812C12.0659 99.4812 12.0659 98.7561 11.5968 98.7561C11.1277 98.7561 11.1277 99.4812 11.5968 99.4812Z" fill="white"/>
<path id="Vector_94" d="M1.10314 88.3972C1.57221 88.3972 1.57221 87.6721 1.10314 87.6721C0.634076 87.6721 0.634076 88.3972 1.10314 88.3972Z" fill="white"/>
<path id="Vector_95" d="M2.3894 78.2317C2.85846 78.2317 2.85846 77.5066 2.3894 77.5066C1.92033 77.5066 1.92033 78.2317 2.3894 78.2317Z" fill="white"/>
<path id="Vector_96" d="M10.4507 65.9585C10.9197 65.9585 10.9197 65.2334 10.4507 65.2334C9.98161 65.2334 9.98161 65.9585 10.4507 65.9585Z" fill="white"/>
<path id="Vector_97" d="M24.837 98.6546C25.3061 98.6546 25.3061 97.9296 24.837 97.9296C24.368 97.9296 24.368 98.6546 24.837 98.6546Z" fill="white"/>
<path id="Vector_98" d="M27.1243 95.0824C27.5933 95.0824 27.5933 94.3573 27.1243 94.3573C26.6552 94.3573 26.6552 95.0824 27.1243 95.0824Z" fill="white"/>
<path id="Vector_99" d="M26.9453 86.5652C27.4144 86.5652 27.4144 85.8401 26.9453 85.8401C26.4762 85.8401 26.4762 86.5652 26.9453 86.5652Z" fill="white"/>
<path id="Vector_100" d="M34.3634 75.3023C34.8325 75.3023 34.8325 74.5773 34.3634 74.5773C33.8943 74.5773 33.8943 75.3023 34.3634 75.3023Z" fill="white"/>
</g>
</svg>
