<svg width="1440" height="1469" viewBox="0 0 1440 1469" fill="none" xmlns="http://www.w3.org/2000/svg">
<g opacity="0.1" clip-path="url(#clip0_116_125)">
<mask id="mask0_116_125" style="mask-type:luminance" maskUnits="userSpaceOnUse" x="-1242" y="-21" width="3652" height="1151">
<path d="M-1241.03 -20.8281C-1081.6 31.5932 -941.687 107.867 -789.807 234.068C-731.638 282.4 -662.384 326.346 -585.732 365.824C-423.186 449.538 -227.343 513.187 -33.4008 556.04C160.602 598.907 352.71 620.97 507.707 621.498C595.639 621.798 671.62 615.166 729.215 601.47C884.092 564.642 1020.57 545.845 1162.44 574.578C1304.37 603.322 1451.2 679.51 1626.47 832.591C1704.64 900.865 1805.96 957.122 1918.1 1002.27C2037.93 1050.51 2170.15 1086.08 2299.72 1110.08C2336.74 1116.94 2373.54 1122.85 2409.78 1127.85L2409.44 1129.19C2373.44 1124.21 2336.88 1118.32 2300.12 1111.51C2169.91 1087.39 2037 1051.63 1916.5 1003.12C1803.72 957.719 1701.84 901.158 1623.27 832.535C1448.82 680.164 1303.11 604.419 1162.66 575.974C1022.15 547.517 886.378 566.274 732.109 602.956C674.24 616.717 597.917 623.379 509.611 623.078C354.078 622.546 161.309 600.407 -33.3664 557.392C-228.102 514.364 -424.765 450.443 -588.016 366.368C-664.998 326.719 -734.551 282.589 -792.959 234.055C-943.858 108.669 -1082.96 32.766 -1241.39 -19.4381L-1241.03 -20.8281Z" fill="white"/>
</mask>
<g mask="url(#mask0_116_125)">
<path d="M2467.7 902.997L-1233.41 -50.4134L-1307.29 236.367L2393.83 1189.78L2467.7 902.997Z" fill="url(#paint0_linear_116_125)"/>
</g>
<mask id="mask1_116_125" style="mask-type:luminance" maskUnits="userSpaceOnUse" x="-1250" y="11" width="3662" height="1112">
<path d="M-1249.38 11.5743C-1082.72 62.3697 -935.027 138.489 -770.076 268.37C-708.712 316.687 -636.892 360.343 -558.247 399.313C-391.482 481.95 -193.953 543.559 -0.190937 583.987C193.628 624.428 383.694 643.68 535.462 641.595C621.559 640.412 695.336 632.361 750.452 617.417C898.674 577.23 1030.54 555.747 1172.05 582.653C1313.61 609.572 1464.31 684.798 1649.88 837.978C1732.65 906.299 1836.98 961.966 1950.87 1006.11C2072.58 1053.29 2205.28 1087.34 2334.3 1109.63C2360.18 1114.1 2385.91 1118.1 2411.38 1121.64L2411.03 1122.97C2385.85 1119.46 2360.4 1115.5 2334.82 1111.08C2205.16 1088.68 2071.78 1054.46 1949.39 1007.02C1834.84 962.613 1729.94 906.642 1646.75 837.976C1462.03 685.508 1312.47 610.71 1172.38 584.072C1032.24 557.422 901.056 578.855 753.412 618.886C698.031 633.903 623.934 641.992 537.471 643.179C385.183 645.269 194.469 625.951 -0.0280005 585.371C-194.582 544.776 -392.94 482.904 -560.437 399.904C-639.427 360.764 -711.549 316.925 -773.163 268.411C-937.12 139.313 -1084.02 63.5546 -1249.74 12.9588L-1249.38 11.5724L-1249.38 11.5743Z" fill="white"/>
</mask>
<g mask="url(#mask1_116_125)">
<path d="M2466.77 906.628L-1234.35 -46.7818L-1312.55 256.787L2388.57 1210.2L2466.77 906.628Z" fill="url(#paint1_linear_116_125)"/>
</g>
<mask id="mask2_116_125" style="mask-type:luminance" maskUnits="userSpaceOnUse" x="-1259" y="44" width="3672" height="1073">
<path d="M-1257.87 44.5478C-1083.76 93.4137 -928.191 169.143 -749.419 302.885C-684.927 351.135 -610.632 394.446 -530.084 432.865C-359.282 514.334 -160.286 573.834 33.0881 611.794C226.52 649.766 414.323 666.187 562.684 661.493C646.858 658.829 718.328 649.369 770.91 633.191C912.315 589.688 1039.43 565.543 1180.39 590.59C1321.42 615.653 1475.83 689.838 1671.51 842.944C1758.78 911.233 1866 966.253 1981.53 1009.36C2104.98 1055.42 2237.98 1087.9 2366.32 1108.46C2381.95 1110.96 2397.52 1113.29 2412.98 1115.44L2412.63 1116.77C2397.49 1114.66 2382.25 1112.38 2366.95 1109.93C2237.99 1089.28 2104.3 1056.62 1980.15 1010.3C1863.96 966.944 1756.14 911.628 1668.43 842.998C1473.66 690.594 1320.41 616.832 1180.85 592.032C1041.22 567.22 914.781 591.301 773.931 634.633C721.095 650.888 649.306 660.394 564.787 663.069C415.909 667.779 227.454 651.303 33.3659 613.203C-160.783 575.089 -360.606 515.336 -532.165 433.506C-613.068 394.918 -687.68 351.422 -752.432 302.98C-930.202 169.984 -1085 94.5961 -1258.23 45.9158L-1257.87 44.5478Z" fill="white"/>
</mask>
<g mask="url(#mask2_116_125)">
<path d="M2465.78 910.441L-1235.33 -42.9689L-1317.77 277.047L2383.35 1230.46L2465.78 910.441Z" fill="url(#paint2_linear_116_125)"/>
</g>
<mask id="mask3_116_125" style="mask-type:luminance" maskUnits="userSpaceOnUse" x="-1267" y="78" width="3682" height="1033">
<path d="M-1266.53 78.1476C-1084.74 124.737 -921.233 199.811 -727.825 337.604C-660.283 385.724 -583.592 428.646 -501.227 466.475C-326.569 546.687 -126.336 604.013 66.4134 639.458C259.221 674.914 444.549 688.483 589.347 681.184C671.487 677.041 740.579 666.181 790.57 648.789C924.998 602.022 1047.2 575.24 1187.49 598.409C1327.83 621.584 1485.77 694.643 1691.32 847.506C1783 915.684 1892.99 969.987 2010.02 1012C2135.09 1056.9 2268.25 1087.79 2395.74 1106.57C2402.03 1107.5 2408.31 1108.4 2414.56 1109.27L2414.22 1110.6C2408.33 1109.78 2402.42 1108.94 2396.51 1108.07C2268.37 1089.18 2134.52 1058.14 2008.76 1012.99C1891.06 970.733 1780.46 916.132 1688.31 847.608C1483.7 695.449 1326.95 622.804 1188.07 599.872C1049.14 576.928 927.58 603.634 793.673 650.217C743.448 667.692 674.049 678.602 591.555 682.762C446.265 690.087 260.293 676.469 66.8069 640.889C-126.731 605.297 -327.798 547.732 -503.213 467.17C-585.934 429.18 -662.949 386.076 -730.773 337.755C-923.172 200.676 -1085.93 125.927 -1266.88 79.512L-1266.53 78.1476Z" fill="white"/>
</mask>
<g mask="url(#mask3_116_125)">
<path d="M2464.75 914.453L-1236.36 -38.9564L-1322.94 297.148L2378.17 1250.56L2464.75 914.453Z" fill="url(#paint3_linear_116_125)"/>
</g>
<mask id="mask4_116_125" style="mask-type:luminance" maskUnits="userSpaceOnUse" x="-1276" y="112" width="3693" height="993">
<path d="M-1275.37 112.454C-1085.69 156.379 -914.237 230.48 -705.302 372.518C-634.776 420.463 -555.779 462.946 -471.697 500.135C-293.402 578.994 -92.1586 634.074 99.7714 666.97C291.754 699.875 474.403 710.58 615.46 700.682C695.493 695.066 762.129 682.819 809.467 664.234C936.768 614.252 1053.94 584.867 1193.37 606.121C1332.86 627.385 1494.14 699.234 1709.35 851.679C1805.34 919.671 1917.97 973.204 2036.37 1014.08C2160.76 1057.02 2291.55 1086.01 2416.14 1103.14L2415.8 1104.48C2290.95 1087.24 2159.91 1058.14 2035.23 1015.11C1916.15 973.994 1802.89 920.174 1706.42 851.835C1492.2 700.093 1332.11 628.644 1194.07 607.601C1055.97 586.55 939.425 615.847 812.621 665.63C765.051 684.306 698.123 696.61 617.763 702.25C476.211 712.181 292.932 701.442 100.293 668.423C-92.3963 635.397 -294.477 580.08 -473.574 500.868C-558.03 463.515 -637.366 420.85 -708.174 372.713C-916.101 231.363 -1086.82 157.574 -1275.72 113.819L-1275.37 112.456L-1275.37 112.454Z" fill="white"/>
</mask>
<g mask="url(#mask4_116_125)">
<path d="M2463.66 918.682L-1237.45 -34.7278L-1328.08 317.086L2373.03 1270.5L2463.66 918.682Z" fill="url(#paint4_linear_116_125)"/>
</g>
<mask id="mask5_116_125" style="mask-type:luminance" maskUnits="userSpaceOnUse" x="-1285" y="147" width="3703" height="952">
<path d="M-1284.42 147.585C-1086.63 188.401 -907.286 261.127 -681.859 407.607C-608.436 455.317 -527.221 497.315 -441.513 533.825C-259.756 611.25 -57.7236 664.032 133.149 694.336C324.077 724.648 503.841 732.476 641.015 719.992C718.835 712.909 782.937 699.289 827.567 679.528C947.6 626.391 1059.6 594.432 1198.02 613.75C1336.51 633.08 1500.96 703.638 1725.58 855.496C1825.76 923.225 1940.91 975.923 2060.55 1015.61C2178.55 1054.76 2300.96 1081.26 2417.71 1097.07L2417.36 1098.42C2300.39 1082.51 2177.78 1055.91 2059.53 1016.68C1939.2 976.762 1823.41 923.78 1722.72 855.704C1499.14 704.549 1335.9 634.38 1198.85 615.253C1061.74 596.116 950.351 627.973 830.795 680.899C785.946 700.754 721.56 714.439 643.411 721.551C505.773 734.077 325.387 726.224 133.794 695.805C-57.8517 665.377 -260.726 612.373 -443.273 534.61C-529.362 497.939 -610.925 455.761 -684.645 407.858C-909.071 262.03 -1087.71 189.607 -1284.77 148.951L-1284.42 147.585Z" fill="white"/>
</mask>
<g mask="url(#mask5_116_125)">
<path d="M2462.51 923.14L-1238.6 -30.2703L-1333.17 336.856L2367.94 1290.27L2462.51 923.14Z" fill="url(#paint5_linear_116_125)"/>
</g>
<mask id="mask6_116_125" style="mask-type:luminance" maskUnits="userSpaceOnUse" x="-1295" y="183" width="3715" height="910">
<path d="M-1293.7 183.615C-1087.56 220.823 -900.464 291.732 -657.494 442.867C-581.258 490.289 -497.913 531.754 -410.668 567.547C-225.673 643.444 -23.0801 693.863 166.531 721.544C356.2 749.234 532.878 754.175 665.995 739.119C741.517 730.577 803.017 715.597 844.898 694.686C957.522 638.452 1064.23 603.956 1201.48 621.318C1338.81 638.688 1506.24 707.878 1740.02 858.977C1844.29 926.367 1961.83 978.173 2082.58 1016.63C2194.7 1052.35 2309.61 1076.56 2419.25 1091.09L2418.91 1092.43C2309.07 1077.81 2193.99 1053.51 2081.67 1017.74C1960.23 979.056 1842.04 926.973 1737.25 859.239C1504.56 708.84 1338.33 640.028 1202.44 622.838C1066.48 605.639 960.359 640.018 848.184 696.031C806.101 717.042 744.331 732.091 668.49 740.668C534.907 755.778 357.617 750.819 167.298 723.034C-23.0714 695.244 -226.508 644.61 -412.319 568.379C-499.94 532.433 -583.64 490.79 -660.189 443.176C-902.168 292.654 -1088.58 222.044 -1294.05 184.992L-1293.7 183.615Z" fill="white"/>
</mask>
<g mask="url(#mask6_116_125)">
<path d="M2461.3 927.843L-1239.81 -25.5674L-1338.65 358.121L2362.46 1311.53L2461.3 927.843Z" fill="url(#paint6_linear_116_125)"/>
</g>
<mask id="mask7_116_125" style="mask-type:luminance" maskUnits="userSpaceOnUse" x="-1304" y="220" width="3725" height="867">
<path d="M-1303.24 220.643C-1088.48 253.681 -893.879 322.264 -632.201 478.281C-553.226 525.368 -467.846 566.254 -379.183 601.281C-191.149 675.567 11.7726 723.567 199.902 748.593C388.084 773.625 561.483 775.675 690.408 758.062C763.555 748.071 822.381 731.752 861.455 709.714C966.544 650.446 1067.83 613.454 1203.78 628.841C1339.79 644.237 1510.02 711.977 1752.68 862.147C1860.92 929.125 1980.72 979.978 2102.43 1017.16C2209.21 1049.79 2317.5 1071.91 2420.77 1085.17L2420.43 1086.52C2317.01 1073.17 2208.59 1050.98 2101.64 1018.3C1979.22 980.9 1858.77 929.775 1749.99 862.46C1508.45 712.988 1339.45 645.61 1204.85 630.375C1070.18 615.132 969.464 651.997 864.793 711.031C825.522 733.178 766.439 749.573 692.999 759.606C563.627 777.278 389.635 775.221 200.798 750.101C11.9051 724.974 -191.863 676.772 -380.724 602.158C-469.789 566.97 -555.534 525.911 -634.82 478.641C-895.519 323.207 -1089.44 254.921 -1303.59 222.037L-1303.24 220.645L-1303.24 220.643Z" fill="white"/>
</mask>
<g mask="url(#mask7_116_125)">
<path d="M2460.02 932.807L-1241.09 -20.6027L-1344.26 379.911L2356.85 1333.32L2460.02 932.807Z" fill="url(#paint7_linear_116_125)"/>
</g>
<mask id="mask8_116_125" style="mask-type:luminance" maskUnits="userSpaceOnUse" x="-1314" y="258" width="3737" height="823">
<path d="M-1313.08 258.855C-1089.4 287.094 -887.656 352.708 -606.005 513.84C-524.401 560.526 -437.08 600.787 -347.071 635.021C-156.21 707.614 46.8088 753.137 233.248 775.48C419.753 797.829 589.666 796.985 714.245 776.838C784.923 765.408 841.008 747.765 877.241 724.621C974.676 662.387 1070.43 622.938 1204.91 636.333C1339.45 649.735 1512.28 715.951 1763.57 865.021C1875.64 931.506 1997.56 981.352 2120.11 1017.22C2222.15 1047.09 2324.65 1067.28 2422.28 1079.34L2421.93 1080.69C2324.19 1068.55 2221.6 1048.3 2119.44 1018.4C1996.2 982.321 1873.61 932.209 1760.97 865.383C1510.84 717.003 1339.24 651.137 1206.1 637.875C1072.9 624.607 977.683 663.918 880.629 725.908C844.226 749.161 787.893 766.883 716.914 778.361C591.901 798.579 421.403 799.428 234.265 777.001C47.0686 754.569 -156.804 708.849 -348.501 635.938C-438.897 601.557 -526.581 561.128 -608.528 514.246C-889.218 353.664 -1090.31 288.352 -1313.44 260.268L-1313.08 258.855Z" fill="white"/>
</mask>
<g mask="url(#mask8_116_125)">
<path d="M2458.67 938.049L-1242.44 -15.3613L-1349.83 401.526L2351.28 1354.94L2458.67 938.049Z" fill="url(#paint8_linear_116_125)"/>
</g>
<mask id="mask9_116_125" style="mask-type:luminance" maskUnits="userSpaceOnUse" x="-1324" y="298" width="3748" height="777">
<path d="M-1323.25 298.349C-1090.29 321.083 -881.919 383.022 -578.887 549.529C-494.734 595.768 -405.579 635.355 -314.34 668.752C-120.868 739.568 82.0232 782.569 266.56 802.203C451.163 821.842 617.4 818.105 737.505 795.445C805.635 782.591 858.915 763.644 892.263 739.425C981.935 674.295 1072.05 632.437 1204.92 643.823C1337.84 655.214 1513.08 719.831 1772.7 867.634C1888.49 933.556 2012.4 982.333 2135.63 1016.85C2233.54 1044.27 2331.06 1062.7 2423.76 1073.58L2423.41 1074.94C2330.63 1063.99 2233.07 1045.5 2135.09 1018.06C2011.14 983.348 1886.55 934.305 1770.17 868.05C1511.75 720.931 1337.75 656.649 1206.22 645.378C1074.62 634.101 985.025 675.81 895.705 740.684C862.197 765.017 808.681 784.052 740.252 796.961C619.738 819.699 452.929 823.452 267.697 803.744C82.403 784.03 -121.343 740.846 -315.658 669.719C-407.288 636.179 -496.823 596.423 -581.332 549.989C-883.419 383.998 -1091.13 322.375 -1323.63 299.802L-1323.25 298.351L-1323.25 298.349Z" fill="white"/>
</mask>
<g mask="url(#mask9_116_125)">
<path d="M2457.25 943.576L-1243.86 -9.83423L-1355.35 422.962L2345.76 1376.37L2457.25 943.576Z" fill="url(#paint9_linear_116_125)"/>
</g>
<mask id="mask10_116_125" style="mask-type:luminance" maskUnits="userSpaceOnUse" x="-1335" y="339" width="3761" height="731">
<path d="M-1333.82 339.357C-1091.11 355.793 -876.838 413.18 -550.88 585.338C-464.275 631.078 -373.38 669.949 -281.005 702.473C-85.1419 771.435 117.392 811.861 299.826 828.762C482.317 845.671 644.694 839.044 760.177 813.897C825.691 799.631 876.108 779.406 906.532 754.134C988.342 686.181 1072.71 641.958 1203.81 651.324C1334.96 660.694 1512.41 723.641 1780.08 870.01C1899.46 935.293 2025.21 982.95 2148.99 1016.07C2243.42 1041.34 2336.74 1058.15 2425.23 1067.88L2424.88 1069.25C2336.35 1059.45 2243.03 1042.59 2148.58 1017.32C2024.07 984.003 1897.63 936.089 1777.64 870.477C1511.22 724.784 1335.01 662.16 1205.23 652.889C1075.38 643.612 991.502 687.674 910.013 755.361C879.449 780.749 828.804 801.068 763.004 815.395C647.122 840.63 484.187 847.279 301.067 830.314C117.894 813.343 -85.4906 772.741 -282.212 703.48C-374.971 670.821 -466.255 631.784 -553.228 585.848C-878.264 414.174 -1091.88 357.113 -1334.2 340.842L-1333.82 339.357Z" fill="white"/>
</mask>
<g mask="url(#mask10_116_125)">
<path d="M2455.75 949.405L-1245.37 -4.00507L-1360.83 444.209L2340.29 1397.62L2455.75 949.405Z" fill="url(#paint10_linear_116_125)"/>
</g>
<mask id="mask11_116_125" style="mask-type:luminance" maskUnits="userSpaceOnUse" x="-1346" y="382" width="3773" height="682">
<path d="M-1344.82 382.081C-1091.78 391.338 -872.568 443.152 -521.981 621.247C-433.02 666.438 -340.484 704.551 -247.093 736.16C-49.0555 803.189 152.898 840.997 333.019 855.15C513.199 869.309 671.534 859.802 782.266 832.195C845.087 816.534 892.585 795.049 920.05 768.757C993.902 698.057 1072.44 651.519 1201.61 658.853C1330.85 666.191 1510.31 727.394 1785.72 872.166C1908.55 936.736 2036.01 983.222 2160.21 1014.91C2251.83 1038.29 2341.71 1053.62 2426.68 1062.23L2426.32 1063.61C2341.36 1054.93 2251.51 1039.56 2159.9 1016.18C2034.99 984.311 1906.83 937.578 1783.38 872.682C1509.25 728.582 1331.04 667.686 1203.15 660.425C1075.2 653.161 997.133 699.524 923.574 769.946C895.98 796.361 848.268 817.943 785.181 833.672C674.057 861.376 515.175 870.918 334.379 856.71C153.526 842.498 -49.2727 804.527 -248.173 737.206C-341.959 705.464 -434.884 667.19 -524.221 621.809C-873.925 444.163 -1092.47 392.695 -1345.22 383.615L-1344.82 382.081Z" fill="white"/>
</mask>
<g mask="url(#mask11_116_125)">
<path d="M2454.16 955.553L-1246.95 2.14282L-1366.25 465.272L2334.86 1418.68L2454.16 955.553Z" fill="url(#paint11_linear_116_125)"/>
</g>
<mask id="mask12_116_125" style="mask-type:luminance" maskUnits="userSpaceOnUse" x="-1357" y="426" width="3786" height="632">
<path d="M-1356.33 426.762C-1092.17 427.856 -869.31 472.899 -492.191 657.249C-400.961 701.845 -306.898 739.157 -212.596 769.815C-12.6218 834.831 188.523 869.978 366.134 881.366C543.796 892.757 697.905 880.377 803.771 850.345C863.834 833.303 908.364 810.583 932.837 783.304C998.651 709.937 1071.26 661.139 1198.37 666.431C1325.55 671.727 1506.81 731.118 1789.65 874.128C1915.8 937.913 2044.82 983.172 2169.29 1013.39C2258.82 1035.13 2346.02 1049.09 2428.13 1056.58L2427.77 1057.98C2345.69 1050.42 2258.56 1036.42 2169.1 1014.7C2043.91 984.301 1914.19 938.8 1787.4 874.693C1505.87 732.344 1325.86 673.245 1200.01 668.003C1074.1 662.758 1001.93 711.375 936.371 784.452C911.778 811.867 867.06 834.693 806.752 851.8C700.519 881.939 545.873 894.361 367.602 882.93C189.28 871.495 -12.7061 836.196 -213.572 770.892C-308.299 740.094 -402.761 702.63 -494.35 657.857C-870.602 473.932 -1092.78 429.275 -1356.75 428.372L-1356.33 426.764L-1356.33 426.762Z" fill="white"/>
</mask>
<g mask="url(#mask12_116_125)">
<path d="M2452.49 962.03L-1248.62 8.62027L-1371.63 486.138L2329.48 1439.55L2452.49 962.03Z" fill="url(#paint12_linear_116_125)"/>
</g>
<mask id="mask13_116_125" style="mask-type:luminance" maskUnits="userSpaceOnUse" x="-1369" y="472" width="3799" height="581">
<path d="M-1368.43 473.724C-1092.1 465.568 -867.257 502.399 -461.533 693.331C-368.149 737.277 -272.663 773.738 -177.545 803.417C24.1619 866.352 224.265 898.798 399.157 907.41C574.099 916.022 723.815 900.786 824.688 868.358C881.918 849.96 923.419 826.03 944.877 797.789C1002.58 721.838 1069.18 670.83 1194.1 674.078C1319.06 677.328 1501.93 734.841 1791.88 875.928C1921.2 938.853 2051.63 982.836 2176.25 1011.56C2264.41 1031.88 2349.68 1044.56 2429.6 1050.92L2429.23 1052.34C2349.38 1045.91 2264.22 1033.18 2176.18 1012.89C2050.87 984.008 1919.72 939.791 1789.74 876.544C1501.13 736.109 1319.51 678.873 1195.85 675.657C1072.12 672.441 1005.94 723.252 948.456 798.902C926.895 827.283 885.215 851.321 827.743 869.795C726.52 902.334 576.289 917.624 400.741 908.982C225.142 900.336 24.1996 867.751 -178.384 804.541C-273.922 774.732 -369.819 738.112 -463.583 693.99C-868.484 503.448 -1092.6 467.041 -1368.86 475.401L-1368.43 473.725L-1368.43 473.724Z" fill="white"/>
</mask>
<g mask="url(#mask13_116_125)">
<path d="M2450.74 968.85L-1250.38 15.4402L-1376.95 506.814L2324.16 1460.22L2450.74 968.85Z" fill="url(#paint13_linear_116_125)"/>
</g>
</g>
<defs>
<linearGradient id="paint0_linear_116_125" x1="-1251.12" y1="644.433" x2="1920.39" y2="-615.299" gradientUnits="userSpaceOnUse">
<stop stop-color="#0131B8"/>
<stop offset="0.45" stop-color="#39D4FF"/>
<stop offset="1" stop-color="#FA00FF"/>
</linearGradient>
<linearGradient id="paint1_linear_116_125" x1="-1236.08" y1="655.718" x2="1927.78" y2="-600.978" gradientUnits="userSpaceOnUse">
<stop stop-color="#0131B8"/>
<stop offset="0.45" stop-color="#39D4FF"/>
<stop offset="1" stop-color="#FA00FF"/>
</linearGradient>
<linearGradient id="paint2_linear_116_125" x1="-1221.22" y1="667.023" x2="1935.21" y2="-586.718" gradientUnits="userSpaceOnUse">
<stop stop-color="#0131B8"/>
<stop offset="0.45" stop-color="#39D4FF"/>
<stop offset="1" stop-color="#FA00FF"/>
</linearGradient>
<linearGradient id="paint3_linear_116_125" x1="-1206.55" y1="678.353" x2="1942.71" y2="-572.538" gradientUnits="userSpaceOnUse">
<stop stop-color="#0131B8"/>
<stop offset="0.45" stop-color="#39D4FF"/>
<stop offset="1" stop-color="#FA00FF"/>
</linearGradient>
<linearGradient id="paint4_linear_116_125" x1="-1192.05" y1="689.718" x2="1950.28" y2="-558.42" gradientUnits="userSpaceOnUse">
<stop stop-color="#0131B8"/>
<stop offset="0.45" stop-color="#39D4FF"/>
<stop offset="1" stop-color="#FA00FF"/>
</linearGradient>
<linearGradient id="paint5_linear_116_125" x1="-1177.72" y1="701.117" x2="1957.9" y2="-544.358" gradientUnits="userSpaceOnUse">
<stop stop-color="#0131B8"/>
<stop offset="0.45" stop-color="#39D4FF"/>
<stop offset="1" stop-color="#FA00FF"/>
</linearGradient>
<linearGradient id="paint6_linear_116_125" x1="-1162.43" y1="713.341" x2="1966.01" y2="-529.28" gradientUnits="userSpaceOnUse">
<stop stop-color="#0131B8"/>
<stop offset="0.45" stop-color="#39D4FF"/>
<stop offset="1" stop-color="#FA00FF"/>
</linearGradient>
<linearGradient id="paint7_linear_116_125" x1="-1146.84" y1="725.943" x2="1974.4" y2="-513.819" gradientUnits="userSpaceOnUse">
<stop stop-color="#0131B8"/>
<stop offset="0.45" stop-color="#39D4FF"/>
<stop offset="1" stop-color="#FA00FF"/>
</linearGradient>
<linearGradient id="paint8_linear_116_125" x1="-1131.43" y1="738.599" x2="1982.87" y2="-498.406" gradientUnits="userSpaceOnUse">
<stop stop-color="#0131B8"/>
<stop offset="0.45" stop-color="#39D4FF"/>
<stop offset="1" stop-color="#FA00FF"/>
</linearGradient>
<linearGradient id="paint9_linear_116_125" x1="-1116.17" y1="751.316" x2="1991.45" y2="-483.041" gradientUnits="userSpaceOnUse">
<stop stop-color="#0131B8"/>
<stop offset="0.45" stop-color="#39D4FF"/>
<stop offset="1" stop-color="#FA00FF"/>
</linearGradient>
<linearGradient id="paint10_linear_116_125" x1="-1101.08" y1="764.097" x2="2000.14" y2="-467.716" gradientUnits="userSpaceOnUse">
<stop stop-color="#0131B8"/>
<stop offset="0.45" stop-color="#39D4FF"/>
<stop offset="1" stop-color="#FA00FF"/>
</linearGradient>
<linearGradient id="paint11_linear_116_125" x1="-1086.14" y1="776.95" x2="2008.95" y2="-452.427" gradientUnits="userSpaceOnUse">
<stop stop-color="#0131B8"/>
<stop offset="0.45" stop-color="#39D4FF"/>
<stop offset="1" stop-color="#FA00FF"/>
</linearGradient>
<linearGradient id="paint12_linear_116_125" x1="-1071.34" y1="789.873" x2="2017.89" y2="-437.172" gradientUnits="userSpaceOnUse">
<stop stop-color="#0131B8"/>
<stop offset="0.45" stop-color="#39D4FF"/>
<stop offset="1" stop-color="#FA00FF"/>
</linearGradient>
<linearGradient id="paint13_linear_116_125" x1="-1056.67" y1="802.877" x2="2026.96" y2="-421.945" gradientUnits="userSpaceOnUse">
<stop stop-color="#0131B8"/>
<stop offset="0.45" stop-color="#39D4FF"/>
<stop offset="1" stop-color="#FA00FF"/>
</linearGradient>
<clipPath id="clip0_116_125">
<rect width="3821.94" height="577" fill="white" transform="translate(-1235.06 -44) rotate(14.4454)"/>
</clipPath>
</defs>
</svg>
