<svg width="1440" height="1608" viewBox="0 0 1440 1608" fill="none" xmlns="http://www.w3.org/2000/svg">
<g clip-path="url(#clip0_492_58)">
<path d="M2127.33 530.31C2122.9 525.28 2119.22 521.11 2114.99 516.3C2111.4 515.42 2106.83 514.3 2100.51 512.76V525.04C2094.02 524.27 2093.24 518.88 2093.08 514.05C2092.79 505.51 2088.73 500.13 2081.63 495.88C2076.88 493.04 2072.9 488.93 2068.54 485.43C2061.92 480.12 2055.62 474.3 2048.52 469.73C2042.61 465.93 2035.75 463.6 2028.76 460.37C2017.46 465.34 2005.83 457.16 1992.46 457.77C1994.14 464.59 1995.52 470.19 1997.16 476.82C1994.4 478.56 1991.27 480.54 1989.03 481.95C1983.72 477.18 1979.73 473.6 1974.96 469.31C1977.19 467.69 1978.93 466.57 1980.51 465.25C1982.07 463.94 1983.47 462.43 1985.21 460.75C1982.08 459.23 1980.01 458.22 1979.04 457.75C1974.75 462.19 1971.11 465.96 1967.47 469.73C1955.28 466.85 1943.55 465.54 1931.9 466C1925.78 466.24 1921.32 465.44 1919.66 460.21C1918.77 453.96 1917.88 447.72 1917.16 442.66C1899.44 434 1897.11 433.96 1882.17 438.29C1876.92 439.81 1871.29 440.05 1868.47 440.48C1860.14 432.56 1853.67 426.4 1845.72 418.83C1847.68 418.27 1849.54 417.75 1851.41 417.22C1845.59 410.1 1839.47 407.3 1831.46 409.25C1830.54 411.44 1829.65 413.54 1828.6 416.01C1825.65 415.6 1823.02 415.24 1819.9 414.81C1820.7 411.09 1821.35 408.1 1821.98 405.19C1807.64 398.76 1793.42 395.78 1779.51 405.97C1780.05 412.89 1780.6 420.08 1781.24 428.34C1777.42 427.24 1775 426.54 1772.83 425.92C1770.48 428.69 1768.62 430.89 1765.88 434.12C1765.43 430.81 1765.2 429.15 1764.92 427.12C1761.15 425.88 1757.46 424.67 1753.84 423.48C1749.69 425.92 1745.66 428.28 1741.37 430.8C1737.7 426.93 1734.41 423.45 1731.07 419.93C1725.75 426.32 1729.02 436.99 1720.14 443.49C1715.53 437.91 1710.22 434.17 1707.09 426.83C1703.5 418.42 1700.25 408.28 1689.8 404.6C1694.57 399.64 1699.36 394.67 1704.8 389.02C1701.62 385.58 1699.49 383.28 1697.61 381.26C1693.26 382.46 1690.34 383.27 1688.48 383.78C1683.22 380.45 1678.93 377.73 1674.15 374.7C1672.19 375.76 1669.82 377.05 1666.86 378.65C1667.62 382.57 1668.36 386.35 1669.25 390.94C1666.16 392.77 1662.83 394.74 1660.03 396.39C1650.49 393.78 1641.8 391.41 1633.8 389.23C1632.9 385.1 1632.33 382.46 1631.83 380.19C1624.93 378.62 1618.76 377.21 1612.59 375.81C1612.68 376.18 1612.77 376.54 1612.85 376.91C1607.52 377.56 1602.19 378.2 1597.07 378.83C1596.27 376.25 1595.82 374.8 1595.33 373.24C1585.16 377.93 1580.11 368.35 1572.32 366.48V358.74C1577.5 354.98 1582.85 351.54 1587.69 347.48C1595.87 340.63 1600.01 331.41 1600.72 320.95C1600.96 317.46 1599.48 310.93 1598.1 310.73C1588.4 309.38 1589.55 298.45 1582.27 294.55H1562.02C1560.93 295.81 1559.7 297.23 1558.35 298.79C1555.61 298.33 1552.87 297.87 1549.89 297.37C1552.01 293.31 1553.77 289.95 1555.26 287.11C1549.61 284.28 1544.95 281.94 1540.59 279.75C1542.81 275.45 1544.23 272.72 1545.7 269.87C1541.3 267.53 1537.63 265.57 1532.56 262.87C1527.56 267.76 1522.12 273.01 1516.77 278.35C1510.58 284.54 1516.2 293.75 1511.7 300.69C1507.43 301.3 1503.54 301.85 1499.65 302.4C1500.03 302.94 1500.4 303.48 1500.78 304.02C1496.38 308.2 1491.98 312.38 1486.66 317.43C1476.74 313.92 1466.63 306.8 1455.79 315.65C1455.99 316.45 1456.37 317.98 1456.76 319.56C1444.97 326.91 1427.44 325.41 1421.96 341.11C1417.03 343.22 1413.09 344.9 1409.12 346.6C1409.6 351.17 1409.99 354.97 1410.34 358.28C1412.73 362.35 1414.99 366.18 1417.86 371.06C1405.99 373.28 1396.14 375.82 1386.13 376.77C1378.84 377.46 1372.8 379.04 1369.9 383.42C1371.43 391.63 1372.63 398.08 1373.5 402.79C1378.74 407.93 1383.09 412.19 1387.74 416.74C1384.31 419.82 1382.29 421.64 1379.94 423.75C1372.96 417.55 1366.43 411.75 1360.35 406.35C1353.65 409.88 1348.07 412.81 1341.89 416.07C1341.66 418.38 1341.4 421.08 1341.17 423.45C1343.7 425.49 1345.82 427.2 1348.06 429C1343.52 434.53 1339.08 434.06 1333.22 429.16C1333.88 422.01 1334.59 414.36 1335.3 406.65C1333.86 413.52 1327.83 416.49 1322.48 419.52C1321.43 422.55 1320.53 425.15 1319.75 427.4C1322.68 433.93 1325.53 440.31 1328.23 446.34C1322.97 455.45 1321.69 464.31 1325.66 474.4C1330.21 473.4 1334.4 472.48 1339.05 471.46C1341.3 473.05 1343.68 474.74 1347.13 477.19C1340.12 479.18 1334.62 480.74 1328.43 482.5C1329.55 489.31 1330.51 495.12 1331.56 501.47C1325.26 510.28 1318.84 519.25 1311.86 529C1306 523.27 1295.94 529.3 1291.92 519.49C1298.4 517.67 1304.35 515.99 1310.76 514.18C1314.6 504.23 1318.23 494.85 1321.57 486.19C1318.3 482.21 1316.02 479.45 1314.09 477.1C1314.09 468.68 1312.33 460.43 1314.51 453.41C1317.66 443.28 1315.84 435.49 1309.82 429.23C1310.62 417.78 1320.3 408.85 1314.25 396.91C1306.89 396.58 1299.91 396.27 1292.63 395.94C1290.59 405 1288.59 413.87 1286.29 424.09C1283.48 426.51 1279.8 429.69 1277.08 432.03C1278.17 441.61 1279.13 450.07 1280.04 458.09C1278.01 459.71 1276.62 460.82 1274.76 462.3C1278.6 464.06 1281.39 465.33 1282.77 465.97C1285.91 472.23 1288.38 477.15 1291.47 483.29C1291.31 483.61 1290.25 485.73 1289.3 487.62H1283.79C1275.73 481.75 1268.54 476.01 1260.82 471.11C1256.29 468.23 1251.07 466.18 1245.89 464.67C1236.87 462.04 1227.51 460.34 1222.5 450.38C1221.19 452.12 1220.27 453.34 1219.25 454.69C1222.54 458.21 1225.54 461.43 1228.54 464.64C1229.24 464.03 1229.77 463.57 1230.3 463.11C1232.02 468.13 1233.73 473.15 1235.59 478.59C1233.76 480.31 1231.75 482.21 1229.67 484.17C1225.76 482.4 1222.18 480.78 1218.57 479.14C1215.67 481.74 1213 484.15 1210.46 486.43H1197.87C1197.99 486.87 1198.11 487.3 1198.23 487.74C1194.28 489.05 1190.32 490.36 1185.85 491.84C1185.22 486.76 1184.83 483.53 1184.08 477.51C1180.27 482.7 1178.16 485.59 1176.04 488.47C1163.78 490.7 1154.73 499.18 1144.44 505.34C1144.08 508.49 1143.72 511.65 1143.28 515.54C1139.06 516.55 1134.97 517.54 1130.74 518.55C1127.95 513.7 1125.66 509.73 1123.22 505.51C1127.44 502.09 1130.74 499.43 1134.34 496.51C1132.28 493.01 1130.5 489.99 1128.45 486.51C1124.93 486.72 1121.58 486.91 1119.99 487C1119.29 494.8 1118.71 501.4 1117.99 509.38C1118.84 511.19 1120.37 514.42 1121.82 517.5C1120.64 521.82 1119.53 525.88 1118.25 530.55C1113.75 527.99 1109.8 525.75 1106.25 523.72C1099.72 529.96 1093.76 535.66 1088.06 541.1C1089.66 546.193 1089.18 550.497 1086.61 554.01C1083.26 553.58 1079.99 553.16 1076.74 552.75C1074.92 551.02 1072.78 548.99 1070.6 546.91C1069.01 548.35 1068.12 549.15 1066.07 551.02C1069.29 554.15 1072.35 557.13 1075.9 560.58C1075.68 561.96 1075.32 564.19 1075.02 566.01C1064.62 569.12 1061.83 558.48 1053.64 557.03C1053.17 549.4 1052.72 542.13 1052.11 532.35C1050.82 531.07 1047.62 527.87 1044.15 524.42C1045.21 522.73 1046.49 520.67 1047.38 519.25C1056.33 522.4 1064.43 525.06 1072.4 528.09C1081.73 531.64 1090.2 528.92 1094.96 520.47C1099.67 512.12 1097.57 503.12 1089.65 497.04C1080.29 489.86 1071.02 482.58 1062.6 476.03C1052.73 472.73 1043.64 469.69 1032.89 466.1C1036.66 464.71 1038.43 464.06 1040.2 463.4C1040.24 462.94 1040.27 462.48 1040.31 462.02H1016.42C1019.25 459.71 1020.08 459.03 1021.69 457.71C1020.07 457.27 1018.6 456.88 1016.61 456.34C1021 453.8 1023.52 452.33 1026.98 450.32C1019.33 444.5 1012.43 439.24 1004.89 433.49C1003.62 436.74 1002.68 439.15 1001.74 441.55C998.91 439.81 996.19 438.13 994.72 437.23C989.86 438.4 986.06 439.31 983.68 439.89C980.84 445.26 978.43 449.81 975.64 455.07C970.99 454.37 966.83 453.74 962.4 453.07C963.84 455.44 965.17 457.63 966.49 459.82C966.17 460.42 965.84 461.03 965.52 461.63C961.76 460.21 958 458.79 954.1 457.32C954.96 460.4 955.9 463.75 956.72 466.65C953.12 475 945.43 469.98 940.45 472.7C935.57 477.99 930.76 483.2 925.15 489.28C925.33 491.38 925.61 494.71 925.89 498.07C923.39 498.44 921.08 498.78 919.59 499C914.6 507.22 909.94 514.9 905.26 522.61C907.05 524.29 908.34 525.51 911.17 528.17C895.09 529.69 901.35 544.3 896.06 553.76C894.01 550.92 893.13 549.7 892.13 548.31C891.18 549.92 890.2 551.57 889.22 553.22C890.39 554.07 891.5 554.88 891.15 554.63C886.88 560.88 882.99 566.57 877.86 574.07C873.94 576.41 867.86 580.05 860.55 584.42C859.56 586.25 857.81 589.46 856.03 592.75C856.98 594.62 858.16 596.92 860.14 600.82C855.7 599.9 853.03 599.35 849.75 598.68C849.9 601.36 849.98 602.85 850.05 604.3C855.01 605.41 859.53 606.43 864.04 607.44C863.97 608.19 863.91 608.94 863.84 609.68C859.31 610.17 854.79 610.67 849.94 611.19C850.46 614.29 850.91 617.01 851.28 619.24C854.11 618.88 856.49 618.58 861.05 618C857.2 622.89 854.78 625.97 853 628.23C853.33 633.1 853.61 637.2 853.95 642.08C857.963 646.44 862.64 648.52 867.98 648.32C872.79 643.94 877.5 639.64 882.79 634.82C883.3 632.16 884 628.53 884.69 624.9C888.32 640.84 896.92 654.07 902.14 668.47V682.37C904.89 682.75 906.44 682.96 909.43 683.37C908.51 673.99 916.58 674.82 920.55 672.84C923.97 667.97 926.59 664.23 929.06 660.71C925.82 653.67 926.83 647.68 931.86 641.8C936.45 636.43 940.31 630.43 944.65 624.49C940.63 620.31 937.15 616.68 932.3 611.64C930.11 595.19 933.76 583.19 947.44 571.63C952.46 567.38 957.01 562.57 961.48 558.29C956.4 548.08 963.37 542.41 966.45 536.8C974.38 534.53 981.83 532.85 988.24 539.47C987.87 542.29 987.47 545.3 987 548.86C977.72 560.89 967.98 573.52 959.44 584.59C960.88 593.3 963.45 598.95 962.21 606.22C961.27 611.74 965.6 618.17 967.64 624.18C967.7 624.37 968.4 624.34 969.77 624.6C969.97 622.18 970.15 620.06 970.42 616.91C974.88 622.21 978.82 623.16 985.01 620.47C992.84 617.07 1001.68 615.98 1008.67 614.25C1013.22 617.68 1016.05 619.81 1018.41 621.59C1013.81 625.14 1009.31 628.61 1003.8 632.85C993.35 627.89 982.87 629.48 974.33 638.71C973.23 637.35 972.58 636.54 971.51 635.21C970.41 637.33 969.57 638.95 968.48 641.06C972.14 641.6 974.88 642.01 976.39 642.23C978.61 645.05 980.14 646.99 982.4 649.85C980.9 653.65 986.89 662.94 975.49 664C972.78 660.66 970.32 657.61 967.91 654.64C954.67 663.52 959.78 676.03 961.34 685.4C954.83 689.68 950.24 692.69 945.18 696.02C942.3 694.23 939.33 692.38 935.66 690.09C928.09 694.51 920.55 698.93 913.16 703.25C909.34 701.04 904.74 698.39 900.39 695.88C896.82 697.59 893.62 699.13 890.97 700.4C887.33 697.88 884.29 695.78 881.27 693.69C880.92 678.07 880.96 677.91 887.14 670.02C881.433 664.873 875.713 664.89 869.98 670.07C870.95 675.46 871.9 680.85 873.05 687.32C872.49 688.15 871.2 690.06 870.77 690.7C873.04 694.68 874.87 697.9 876.96 701.56C868.72 703.9 861.31 705.43 854.41 708.22C850.94 709.62 846.68 712.82 845.74 716.07C842.69 726.55 834.5 731.05 825.63 735.91C826.18 744.94 817.63 746.75 812.68 751.82C808.96 751.54 805.44 751.27 801.45 750.96C802.05 753.15 802.63 755.25 803.3 757.7C801.43 759.08 799.58 760.44 798.46 761.27C792.76 760.2 788.11 759.34 783.32 758.44C783.09 761.11 782.92 762.95 782.76 764.87C808.88 777.76 810.6 791.71 801.49 813.1C792.99 812.26 783.92 811.24 774.83 810.5C766.48 809.81 757.89 808.33 750.19 815.79C751.36 821.44 753.79 827.56 753.56 833.58C753.31 840.05 750.57 846.43 749.2 851.76C750.93 857.64 752.42 862.74 754 868.11H765.21C768.01 870.59 770.69 872.97 772.27 874.37C781.1 872.52 788.79 870.9 798.9 868.79C802.3 865.39 807.47 860.22 811.3 856.39C808.44 835.88 824.8 832.64 834.86 824.86C832.95 818.17 833.09 812.69 840.25 809.46C845.05 811.06 849.9 812.68 854.58 814.23C861.13 810.24 867.56 806.31 874.41 802.13C877.18 803.25 880.09 804.42 882.08 805.23C889.36 816.99 896.78 826.66 909.2 832.47C923.4 839.11 926.53 847.12 923.99 860.29C926.05 857.04 928.11 853.79 929.81 851.12C928.78 847.55 928.05 845.04 927.39 842.78C930.57 840.87 933.02 839.39 935.94 837.63C927.6 832.33 919.9 827.43 911.16 821.86C909.92 818.93 908.23 814.94 907.12 812.31C903.33 808.74 900.49 806.06 897.82 803.54C898.06 798.83 898.26 794.86 898.45 791.09C901.71 790.27 904.3 789.62 907.22 788.88C907.75 791.22 908.27 793.54 908.71 795.52C910.8 794.31 912.32 793.43 914.53 792.15C917.35 798.27 919.79 803.58 922.24 808.89C922.77 808.37 923.3 807.85 923.83 807.34C932.55 814.04 941.27 820.75 949.87 827.36C948.8 831.68 948.07 834.67 947.44 837.19C953.77 846.81 957.39 859.33 971.45 857.33C970.7 851.6 969.91 845.54 969.01 838.61C972.38 839.69 974.57 840.4 977.09 841.2C979.02 838.81 980.96 836.4 983.49 833.25C989.01 834.58 994.63 835.94 1001.27 837.54C999.22 840.9 997.83 843.18 997.35 843.96C998.62 848.92 999.5 852.62 1000.52 856.29C1001.58 860.09 1002.77 863.86 1003.81 867.33C1012.14 871.43 1020.11 875.38 1028.87 870.14C1033.14 872.42 1036.98 874.47 1041.23 876.74C1045.62 874.81 1050.25 872.77 1054.8 870.77C1056.92 872.06 1058.93 873.27 1060.75 874.38C1061.32 879.8 1061.86 884.88 1062.56 891.51C1054.7 898.3 1057.76 912.17 1047.98 919.08C1040.79 918.09 1034.13 917.18 1026.1 916.08C1023.13 917.52 1018.91 919.56 1013.8 922.03C997.54 916.85 980.56 911.45 961.11 905.26C959.66 905.98 955.85 907.89 951.61 910.02C953.54 918.04 953.84 924.99 946.22 926.12C938.9 923.43 933.25 921.78 927.99 919.28C924.66 917.7 921.56 915.21 919.01 912.52C914.66 907.93 909.93 904.84 903.34 904.87C894.34 904.91 887.43 900.45 881.2 894.02C883.73 891.09 886.05 888.41 887.94 886.21C887.25 881.02 886.66 876.56 885.93 871.08C884.68 870.47 882.22 869.27 881.85 869.1C874.88 869.85 870.2 870.72 865.51 870.77C856.11 870.87 846.34 870.19 837.41 871.61C824.47 873.67 812.16 879.63 799.58 883.93C799.73 884.37 799.89 884.82 800.04 885.26H780.6C777.94 883.16 775.36 881.13 772.11 878.56C770.98 893.02 762.43 900.16 751.27 904.07C749.36 912.58 740.65 918.93 747.79 927.88C739.42 934.37 735.18 944.95 724.94 944.71C720.02 951.28 715.97 956.69 711.93 962.1C712.16 962.19 712.38 962.29 712.61 962.38C706.13 974.18 699.66 985.98 692.37 999.26C700.23 996.97 700.92 1000.21 701.13 1004.33C701.4 1009.57 701.93 1014.79 702.5 1021.83C700.54 1027.57 697.92 1035.26 695.21 1043.22C696.21 1045.37 698.74 1048.17 698.29 1050.36C696.95 1056.84 699.76 1059.79 704.63 1063.6C710.83 1068.45 716.49 1074.74 720.41 1081.55C724.08 1087.93 727.25 1093.75 734.06 1097.5C739.24 1100.35 743.7 1104.62 748.16 1108.62C753.03 1112.99 759.34 1116.07 764.68 1113.23C776.41 1106.98 787.82 1108.41 799.8 1111.7C801.26 1110.95 802.69 1110.29 804.05 1109.5C814.3 1103.57 825.58 1101.49 837.19 1100.61C847.56 1099.82 851.66 1106.66 853.98 1114.93C864.52 1113.29 874.05 1112.73 882.34 1122.28C881.08 1127.24 877.87 1132.89 878.85 1137.67C880.15 1143.94 878.02 1147.87 873.54 1152.86C881.65 1162.4 889.53 1171.66 898.1 1181.75C901.71 1194.67 905.63 1208.67 909.98 1224.25C907.67 1228.24 905.03 1233.43 901.82 1238.24C894.08 1249.84 894.69 1269 901.17 1281.51C906.32 1291.45 913.08 1300.71 913.4 1313.3C913.67 1323.71 917.04 1334.54 921.26 1344.21C926.28 1355.7 933.67 1366.15 939.6 1376.3C938.29 1396.73 940.33 1393.74 948.74 1399.9C960.45 1398.53 971.06 1396.88 981.72 1396.18C989.97 1395.64 997.51 1393.66 1003.94 1388.57C1017.36 1377.96 1026.14 1363.33 1036.46 1350.06C1038.05 1348.02 1038.56 1344.93 1038.96 1342.24C1039.68 1337.3 1039.94 1332.3 1040.36 1327.75C1046.89 1324.36 1052.72 1321.33 1059.38 1317.87C1057.43 1306.47 1055.68 1296.21 1053.83 1285.4C1064.72 1276.13 1074.58 1265.2 1088.37 1260.96C1090.79 1256.12 1092.76 1252.19 1093.64 1250.43C1093.07 1238.37 1092.59 1228.41 1092.08 1217.6C1078.08 1211.39 1091.73 1194.4 1080.54 1187.26C1087.52 1165.69 1101.13 1149.33 1117.84 1137.18C1133.84 1125.55 1147.27 1112.78 1155.48 1095.09C1160.01 1085.33 1168.67 1076.4 1164.97 1064.69C1149.19 1067.71 1133.7 1070.68 1119.78 1073.34C1111.73 1068.18 1112.3 1061.87 1112.35 1055.77C1118.08 1056.38 1123.73 1057.02 1128.62 1052.6C1129.95 1051.4 1132.22 1051.25 1134.05 1050.58C1146.24 1046.16 1158.43 1041.74 1170.64 1037.3C1172.15 1034.8 1173.58 1032.43 1175.36 1029.47C1181.22 1028.08 1187.37 1026.63 1192.01 1025.53C1199.01 1019.82 1205.05 1014.89 1211.08 1009.96C1212.59 1005.58 1215.33 1002.17 1217.99 998.69C1220.85 994.94 1223.63 991.13 1227.44 986C1218.52 980.34 1210.05 974.98 1202.35 970.1C1202.11 965.69 1201.96 962.88 1201.84 960.64C1196.82 964.82 1192.12 971.62 1186.38 972.67C1181.21 973.61 1173.91 980.06 1169.34 973.01C1168.69 967.84 1168.18 963.82 1167.33 957.14C1166.1 962.34 1165.52 964.81 1164.94 967.28C1164.29 967.41 1163.64 967.54 1162.99 967.66C1161.42 963.65 1159.86 959.64 1157.8 954.38C1150.93 947.8 1145.97 938.63 1143.17 927.11H1160.99C1164.02 932.77 1166.83 938.02 1168.79 941.69C1175.06 946.05 1179.95 949.44 1186.39 953.92C1190.69 952.42 1196.12 950.52 1203.06 948.09C1205.66 951.39 1208.68 955.22 1212.34 959.88C1231.54 967.03 1252.8 965.09 1273.09 962.72C1280.67 971.01 1287.3 978.27 1294.36 985.99C1294.24 986.35 1293.79 987.76 1293.31 989.23C1296.33 992.45 1299.37 995.69 1303.01 999.58C1306.93 996.5 1310.42 993.76 1315.46 989.81C1317.5 1007.74 1318.96 1025.01 1326.29 1041.14C1333.6 1057.22 1339.4 1073.98 1348.56 1090.26C1354.62 1083.1 1359.65 1077.17 1365.08 1070.76C1366.2 1058.87 1367.37 1046.55 1368.46 1034.95C1386.98 1028.35 1395.38 1009.02 1412.82 1002.16C1413.48 998.69 1414.07 995.62 1414.61 992.84C1437.21 985.94 1443.58 985.03 1449.98 987.95C1450.33 991.27 1450.7 994.84 1450.95 997.28C1454.68 1004.02 1464.84 1002.18 1465.25 1011.41C1465.56 1018.25 1466.68 1025.06 1467.6 1033.27C1474.12 1035.57 1479.18 1030.2 1484.81 1023.93C1488.77 1034.48 1494.02 1043.78 1495.48 1053.65C1497.03 1064.07 1494.96 1075.02 1494.44 1086.52C1509.87 1095.21 1506.68 1113.95 1515.54 1126.79C1520.73 1129.85 1525.98 1132.93 1532.27 1136.63C1530.21 1126.88 1528.52 1118.91 1526.2 1107.95C1522.57 1105.59 1515.79 1102.57 1510.98 1097.63C1506.27 1092.8 1503.57 1086.02 1498.89 1078.27C1499.49 1069.54 1502.44 1059.54 1508.98 1048.34C1510.83 1052.93 1511.67 1055.03 1512.73 1057.65C1526.15 1055.28 1526.22 1073.11 1537.66 1073.35C1538.07 1077.32 1538.39 1080.41 1538.87 1085C1549.74 1076.95 1559.74 1069.54 1570.19 1061.8C1568.86 1053.63 1567.66 1046.23 1566.76 1040.73C1557.72 1030.22 1549.93 1021.15 1541.39 1011.21C1547.49 1004.47 1552.95 998.42 1557.84 993.02H1571.18C1571.93 994.99 1572.74 997.11 1573.91 1000.19C1576.39 997.14 1578.28 994.81 1578.68 994.31C1592.68 989.43 1604.54 985.29 1619.44 980.1C1636.76 974.8 1640.16 952.89 1654.35 937.81C1654.56 936.6 1655.17 933.18 1655.81 929.54C1655 928.77 1654.22 927.85 1653.27 927.17C1652.12 926.35 1650.82 925.75 1647.61 923.94C1651.34 923.05 1652.77 922.71 1654.83 922.22C1650.55 910.18 1650.03 896.48 1637.4 888.01C1640.46 882.63 1642.02 876.57 1649.9 874.92C1654.05 874.05 1657.57 870.17 1662.07 867.18C1656.39 865.77 1652.17 864.73 1648.96 863.93C1644.12 865.41 1640.07 866.65 1634.87 868.24C1635.61 865.27 1635.98 863.8 1636.35 862.29C1633.9 861.1 1631.25 859.82 1626.63 857.57C1635.55 849.14 1643.47 841.66 1652.17 833.44C1654.67 834.69 1657.31 836.01 1659.95 837.33C1657.88 841.92 1656.21 845.61 1654.04 850.41C1662.15 847.41 1668.53 845.06 1675.29 842.56C1675.72 845.77 1675.9 847.09 1676.08 848.46C1678.02 848 1679.46 847.66 1681.16 847.25C1680.39 851.27 1679.67 855.05 1678.93 858.92C1682.45 861.01 1685.48 862.82 1688.25 864.46V888.95C1696.94 891.03 1701.92 885.38 1707.85 882.08V867.33C1703.63 861.32 1698.96 854.68 1693.88 847.46C1699.04 839.88 1713.09 838.03 1711.27 826.06C1716.67 821.12 1721.08 817.08 1725.66 812.89C1736.18 819.16 1741.62 817.64 1749.67 806.9C1759.71 793.52 1769.66 780.17 1778.17 765.7C1781.35 760.29 1783.42 755.34 1783.74 749.04C1784.16 740.7 1783.29 731.73 1790.11 724.97C1796.92 723.26 1797.82 728.91 1797.92 732.71C1798.11 739.86 1796.6 747.05 1796.15 754.24C1795.97 757.16 1796.69 760.14 1797 763.09C1800.57 757.19 1801.27 749.81 1809.02 750.2C1806.4 734.73 1803.88 719.94 1801.46 705.68C1800.6 706.27 1798.72 707.59 1796.81 708.91C1796.14 711.75 1795.46 714.61 1794.5 718.65C1791.87 716.55 1790.43 715.4 1788.91 714.19C1790.28 712.14 1791.4 710.48 1792.27 709.18C1787.4 705.18 1782.59 701.23 1778.08 697.53C1773.72 700.95 1770.28 703.65 1765.16 707.67C1764.46 695.84 1757.9 692.86 1749.15 692.3C1749.91 689.67 1749.89 687.33 1751.05 686.12C1761.7 674.98 1772.59 664.08 1783.29 652.98C1784.59 651.64 1784.88 649.37 1786.04 647.85C1793.03 638.73 1799.87 629.26 1813.71 632.08C1817.1 632.77 1820.52 633.26 1823.78 633.81C1824.89 632.54 1825.81 631.5 1826.25 630.99C1830.82 631.82 1834.67 632.53 1838.92 633.3C1841.34 631.38 1844.14 629.17 1847.2 626.74C1852.62 628.05 1857.86 629.32 1862.94 630.55C1862.47 633.21 1862.07 635.53 1861.55 638.48C1869.57 636.72 1876.87 635.11 1884.87 633.36C1882.99 631.6 1881.15 629.87 1879.33 628.17C1888.86 614.42 1894.9 596.71 1915.5 595.67C1917.98 597.74 1920.12 599.53 1921.12 600.36V613.52C1928.23 607.9 1934.28 603.13 1941.29 597.59C1941.61 594.83 1942.1 590.55 1942.64 585.82C1946.02 586.19 1948.67 586.49 1951.87 586.84C1950.88 589.78 1949.57 591.99 1949.49 594.23C1949.16 603.74 1946.95 611.74 1937.42 616.57C1934.17 618.22 1932.35 622.6 1929.72 625.58C1920.79 635.72 1911.78 645.79 1902.81 655.89C1899.57 658.72 1896.86 662.23 1895.02 666.16C1893.2 670.03 1890.97 674.39 1891.18 678.42C1891.81 690.76 1893.44 703.06 1894.87 715.36C1895.49 720.67 1896.56 725.93 1897.55 732.02C1906.76 726.23 1910.58 718.9 1911.79 710.57C1914.65 708.96 1917.03 707.62 1919.42 706.27C1919.69 702.86 1919.94 699.69 1920.2 696.31C1924.75 694.37 1929 692.57 1934 690.44C1928.59 680.43 1933.95 674.88 1940.4 671.9V653.42C1937.71 651.77 1934.76 649.96 1931.8 648.15C1937.25 639.81 1939.42 633.85 1942.47 628.38C1945.14 623.58 1949.16 620.33 1955.07 623.68C1958.07 619.41 1961.25 617.01 1964.56 619.95C1971.63 617.76 1977.85 615.84 1982.98 614.25C1986.94 617.59 1989.28 619.57 1991.12 621.12C2004.46 606.62 2019.36 594.91 2037.02 587.06C2039.81 585.82 2043.82 587.57 2047.26 587.51C2050.03 587.46 2052.78 586.78 2056.08 586.3C2051.88 575.76 2048.36 566.91 2044.8 557.98C2048.29 555.47 2052.1 552.74 2056.64 549.49V528.29C2059.82 529.99 2062.03 531.17 2064.19 532.32C2064.91 530.13 2065.32 528.88 2066.51 525.22C2068.33 531.44 2069.39 535.05 2070.69 539.47C2074.98 538.87 2078.66 538.36 2083.28 537.71C2085.48 541.68 2087.74 545.76 2090.04 549.91C2095.86 553.12 2101.77 556.39 2110.25 561.07C2108.68 555.96 2108.04 553.91 2107.21 551.21C2113.73 544.39 2120.45 537.37 2127.26 530.26L2127.33 530.31Z" fill="#3A2075" fill-opacity="0.03"/>
<path d="M1335.35 406.65C1335.58 405.57 1335.7 404.41 1335.68 403.12C1335.57 404.3 1335.46 405.47 1335.35 406.65Z" fill="#3A2075" fill-opacity="0.03"/>
<path d="M233.22 1065.36C231.8 1057.27 235.03 1048.37 236.23 1039.87C231.11 1037.47 226.83 1035.47 224.68 1034.46C214.17 1035.08 205.95 1035.56 197.34 1036.07C202.09 1021.63 206.33 1008.78 210.64 995.66C208.41 994.59 205.94 993.4 204.1 992.51C198.73 993.98 194.2 995.21 189.99 996.36C187.67 1002.6 185.52 1008.41 183.78 1013.1C174.58 1015.01 167.22 1016.54 159.87 1018.07C155.83 1016.15 151.59 1014.14 149.33 1013.06C134.94 995.64 132.82 978.06 139.95 958.45C137.37 952.18 138.95 945.96 144.21 941.08C148.84 937.73 153.48 934.38 160.3 929.46C168.57 929.9 179.97 930.49 190.62 931.05C192.92 928.27 194.66 926.16 196.87 923.48C206.64 924.7 216.46 925.93 226.28 927.16C226.22 927.71 226.16 928.26 226.11 928.81C228.28 928.07 230.45 927.33 231.36 927.01C235.34 930.18 238.49 932.68 241.08 934.74C241.05 947.52 245.06 957.38 256.72 966.48C256.81 959.23 257.71 953.8 256.72 948.73C255.53 942.58 253.4 936.4 250.49 930.85C246.47 923.18 248.08 916.52 253.37 911.04C260.19 903.98 267.94 897.81 275.44 891.44C276.06 890.91 277.21 891.01 277.49 891.12C282.66 886.14 286.68 882.28 290.5 878.61C289.42 873.98 288.21 868.77 287.04 863.77C290.87 859.3 295.97 855.6 290.84 849.03C300.57 849.14 299.56 842.04 300.41 835.79C300.63 834.16 303.17 832.85 305.1 830.96C305.83 834.03 306.29 835.97 306.64 837.43C310.08 836.62 312.82 835.98 316.38 835.15C316.01 833.63 315.58 831.89 315.26 830.57C318.13 828.83 320.88 827.16 322.73 826.03H330.62C326.78 823.76 324.09 822.16 321.26 820.49C321.6 818.59 321.47 816.8 322.21 815.51C330.11 801.66 344.56 798.01 358.07 793.07C359.08 792.7 361.08 795.06 363.09 796.48C360.26 798.83 357.92 800.77 355.17 803.06C356.51 805.39 357.63 807.34 358.13 808.21C367.84 803.17 377.01 798.4 386.67 793.38C387.06 791.56 387.61 789.04 387.91 787.61C380.48 786.58 373.46 785.62 364.63 784.4C367.01 781.44 368 780.2 369.19 778.72C366.99 777.16 364.81 775.62 362.07 773.68C363.8 768.08 365.45 762.74 367.41 756.39C352.47 750.61 342.58 759.14 333.46 767.42C329.52 765.83 325.9 764.49 322.42 762.84C321.9 762.59 322.07 760.87 321.76 758.7C325.44 759.69 328.31 760.46 330.57 761.07C338.18 754.71 345.27 748.79 353.76 741.7H398.31C400.92 738.48 403.4 735.43 406.73 731.33C412.13 729.39 418.72 727.02 425.78 724.48V708.46C423.22 706.86 420.22 704.99 418.85 704.14C415.55 699.15 413.63 692.76 410.44 692.05C398.31 689.35 392 680.36 384.52 671.66C384.6 666.68 386.85 661.05 382.41 656.5C386.77 650.85 371.67 649.73 378.92 644.54C373.97 636.05 369.46 628.33 364.1 619.15C362.1 625.56 360.7 630.05 359.3 634.54C358.89 634.28 358.48 634.01 358.07 633.75C355.86 637.2 353.64 640.65 351.09 644.63C349.65 645.25 347.47 646.18 346.01 646.81C340.79 643.52 336.17 640.61 331.86 637.89C331.12 629.49 330.39 621.09 329.83 614.78C320.25 605.48 311.9 597.38 303.4 589.13C293.67 597.04 283.69 585.52 273.35 589.85C274.36 601.26 275.34 612.47 276.33 623.67C277.04 623.72 277.74 623.77 278.45 623.81C275.95 629.45 273.44 635.09 270.56 641.58C284.14 647.73 280.99 662.3 286.41 672.93C279.03 679.79 271.61 686.69 263.51 694.22C264.87 699.53 266.09 706.18 268.29 712.49C271.45 721.58 269.13 727.95 259.36 732.44C255.02 727.17 250.51 721.68 245.2 715.23C249.02 714.07 251.06 713.46 254.66 712.37C250.18 710.49 247.4 709.33 243.76 707.81C243.42 700.92 243.08 694.04 242.71 686.65C240.84 686.45 238.86 685.9 236.94 686.07C223.89 687.26 213.93 680.51 204.99 672.64C195.84 664.58 186.33 659.79 174.16 663.54C171.54 655.53 169.11 648.08 166.98 641.57C162.69 639.9 159.79 638.77 156.82 637.61C152.46 614.71 165.08 598.43 175.78 581.86C179.22 581.22 181.91 580.72 183.91 580.35C186.55 573.98 188.87 568.36 190.94 563.36C193.02 563.84 194.79 564.88 195.91 564.41C205.32 560.47 208.83 552.01 210.61 542.99C211.39 539.06 211.99 537.12 216.8 538.2C215.95 548.07 220.69 558.54 212.48 567.84C215.69 568.57 218.71 569.25 220.88 569.74C222.15 572.53 223.02 574.43 224.43 577.53C229 571.52 232.63 566.74 236.65 561.46C241.55 564.89 246.47 568.33 251.76 572.03C253.91 569.2 255.42 567.22 257.23 564.85C253.14 564.43 250.01 564.1 246.79 563.77C246.1 560.22 245.51 557.18 245.13 555.23C237.59 549.21 231.02 543.97 225.48 539.56C229.4 533.63 232.76 528.55 237.02 522.1C250.63 514.88 251.01 513.49 244.23 497.38C242.92 494.27 242.95 490.59 242.37 487.2C244.91 486.12 247.38 485.07 248.95 484.4C252.9 474.18 242.83 471.82 239.95 465.21C234.54 464.17 228.89 463.08 220.62 461.48C222.97 468.33 224.54 472.88 225.37 475.3C223.08 481.13 220.89 485.53 219.63 490.19C217.6 497.7 217.03 505.79 209.48 511.29C206.82 507.66 204.53 504.54 201.88 500.92C202.81 494.98 203.77 488.79 204.64 483.24C201.32 479.46 198.68 476.46 196.29 473.73C193.37 478.32 190.23 483.26 186.46 489.18C185.47 481.53 184.67 475.37 183.92 469.55C180.14 466.69 176.73 464.1 173.22 461.45C174.36 457.96 175.28 455.11 175.65 453.98C173.68 446.2 172.44 439.61 170.31 433.31C167.82 425.96 162.75 420.71 155.03 418.59C154.13 418.34 152.91 419.25 151.33 419.8C152.09 423.03 152.79 426.02 153.54 429.2C151.31 430.08 149.18 430.92 146.2 432.1C146.99 442.54 147.77 452.94 148.4 461.29C153.67 463.51 157.12 464.97 160.91 466.56V483.76C162.98 481.91 163.99 480.99 166.11 479.09C162.92 491.27 156.88 498.62 151.85 497.65C149.09 495.56 146.33 493.48 142.92 490.9C145.69 487.13 148.09 483.85 150.06 481.16C148.86 477.05 147.82 473.51 146.89 470.33C142.97 467.01 139.17 463.79 136.46 461.49C132.48 467.21 128.85 472.43 125.26 477.6C128.22 479.34 131.24 481.12 134.48 483.03C133.04 486.45 131.75 489.53 130.4 492.73C134.45 494.49 137.98 496.04 141.85 497.72C141.37 499.74 140.94 501.49 140.64 502.74C129.91 499.74 119.99 500.09 110.03 502.29C104.06 500.17 97.69 498.75 92.22 495.73C87.13 492.92 81.84 489.14 83.06 481.74C81.41 480.94 79.75 480.13 77.77 479.16C72.31 482.16 66.78 485.19 60.14 488.84C64.04 491.87 66.19 493.54 67.49 494.55V509.07C64.61 507.68 59.91 506.5 59.88 505.22C59.7 497.53 54.01 498.45 49.94 498.94C43.32 499.74 36.86 501.92 29.99 503.6C24.92 501.67 19.71 499.69 11.59 496.6C17.45 493.09 20.48 491.27 24.04 489.13C21.39 485.67 18.77 482.25 16.08 478.74C2.40997 482.96 -7.23001 472.86 -20.56 470.52C-22.19 468.44 -24.69 465.25 -26.79 462.56H-36.67C-40.66 465.45 -39.07 473.46 -46.83 471.37C-47.62 466.97 -48.43 462.51 -49.77 455.02C-51.96 461.63 -53.24 465.49 -54.64 469.71C-67.99 468.05 -62.96 452.89 -71.63 448.21C-73.14 451.86 -74.64 455.5 -76.15 459.13C-78.29 460.11 -80.44 461.09 -83.11 462.32C-86.73 455.49 -91.04 455.84 -96.53 460.4C-101.13 464.23 -106.24 468.65 -111.75 469.8C-116.12 470.71 -121.33 467.73 -125.42 472.77C-124.82 475.92 -124.19 479.2 -123.09 484.95C-134.2 478.94 -143.35 473.99 -152.62 468.97C-160.65 465.63 -168.96 462.17 -177.27 458.72C-177.14 458.12 -177.01 457.52 -176.88 456.92C-181.15 457.59 -185.42 458.25 -190.13 458.99C-192.32 457.84 -194.95 455.89 -197.9 455.02C-205.81 452.71 -213.85 450.87 -223.91 448.32C-226.52 448.75 -231.55 449.57 -236.68 450.41C-239.72 446.8 -242.25 443.79 -245.36 440.09C-248.61 440.7 -252.38 441.42 -256.5 442.19C-257.2 440.29 -257.9 438.37 -258.56 436.58C-261.31 437.96 -263.54 439.07 -266.56 440.59C-265.9 437.48 -265.54 435.77 -265.21 434.19C-267.85 432.89 -269.69 431.99 -271.74 430.98C-273.68 434.19 -275.1 436.54 -276.88 439.49C-281.29 440.45 -285.99 441.49 -290.98 442.58C-291.26 444.27 -291.63 446.6 -291.98 448.76C-297.96 450.48 -303.63 452.1 -309.39 453.76C-313.05 462.13 -316.54 470.1 -319.8 477.56C-326.23 479.45 -331.85 481.11 -337.56 482.79C-339.13 498.33 -317.22 497.16 -319.48 511.02C-315.48 513.06 -312.64 514.51 -309.49 516.11C-308.8 517.97 -307.99 520.15 -307.23 522.2C-303.48 522.62 -299.81 517.24 -295.26 524.37C-299.83 525.35 -303.47 526.13 -307.59 527.01C-308.75 528.31 -310.52 530.31 -311.85 531.82C-315.28 530.8 -317.87 530.03 -319.94 529.41C-321.02 526.76 -321.83 524.76 -323.12 521.59C-327.86 524.42 -331.53 526.62 -335.1 528.75C-335.62 528.01 -336.04 527.39 -336.89 526.17C-337.63 528.93 -338.03 530.45 -338.76 533.19C-339.98 531.62 -340.68 530.71 -341.11 530.15C-343.49 532.71 -346.11 535.53 -347.99 537.55C-346.27 539.24 -344.45 541.04 -342.48 542.98C-341.77 542.94 -340.07 542.86 -338.24 542.76C-341.47 551.59 -335.82 553.94 -330.46 555.88C-325.41 555.22 -320.46 555.63 -315.61 555.1C-311.08 554.61 -306.65 553.12 -302.12 552.06C-301.09 557.75 -300.25 562.4 -299.28 567.82C-299.98 569.15 -301.07 571.24 -301.68 572.41C-311.53 576.38 -320.55 580.02 -329.79 583.75C-328.3 585.41 -327.3 586.51 -327.63 586.15C-330.49 591.41 -332.98 595.99 -335.13 599.95C-333.72 603.73 -332.65 606.59 -332.31 607.5C-326.76 609.03 -322.54 610.2 -317.05 611.71C-320.83 615.67 -323.67 618.65 -326.39 621.5C-320.69 626.71 -315 625.51 -308.27 619.53C-307.07 627.45 -306.08 633.99 -305.08 640.6C-302.7 639.32 -300.29 638.02 -297.21 636.36C-293.71 638.52 -290.21 640.68 -287.24 642.52H-277.25V656.48C-283.63 662.32 -290.75 668.85 -298.44 675.89C-304.45 675.65 -309.38 678.42 -312.12 685.54C-302.83 681.72 -294.15 678.14 -287.31 675.33C-273.9 663.06 -261.74 651.93 -249.36 640.6C-252.15 637.99 -253.74 636.5 -256.29 634.12C-251.85 630.51 -247.99 627.38 -245.03 624.97C-242.96 620.47 -241.07 616.39 -239.14 612.19C-236.35 612.92 -234.88 613.31 -232.64 613.9C-234.03 618.37 -235.27 622.34 -236.5 626.29C-235.54 627.04 -234.62 627.76 -233.71 628.48C-234.75 630.25 -235.79 632.02 -236.82 633.78C-230.4 630.95 -225.67 625.1 -219.73 623.38C-211.71 621.06 -212.52 616.84 -213.68 611.19C-213.81 610.53 -213.2 609.73 -213.15 609.6C-209.57 609.18 -206.31 608.79 -202.77 608.37C-193.85 619.67 -181.82 624.25 -167.56 623.45C-163.08 624.82 -158.6 626.19 -153.23 627.84C-148.8 632.24 -143.31 637.68 -136.69 644.24C-134.64 643.87 -130.88 643.2 -126.8 642.46C-127.91 645.69 -128.88 648.5 -130.09 652.02C-126.06 653.23 -122.46 654.31 -118.13 655.61C-119.13 660.29 -120.02 664.49 -120.95 668.84C-119.91 670.85 -118.81 672.97 -117.77 674.97C-115.23 674.15 -112.71 673.33 -110.13 672.49C-111.26 670.7 -112.32 669.03 -113.31 667.47C-110.58 665.64 -107.93 663.87 -105.18 662.03C-103.48 665.17 -101.78 668.29 -100.13 671.34C-95.8 674.24 -91.55 677.09 -87.51 679.8C-86.8767 691.847 -85.5133 699.263 -83.42 702.05C-79.17 702.76 -75.02 703.46 -70.49 704.22C-74.36 713.08 -74.03 714.25 -66.97 718.32C-65.8 718.99 -64.22 718.94 -61.23 719.55C-64.96 722.17 -67.15 723.71 -67.94 724.26C-70.19 730.55 -71.92 735.38 -73.06 738.53C-65.04 745.85 -57.06 753.14 -48.64 760.83C-51.53 769.67 -41.89 776.85 -43.54 786.5C-45.33 797.02 -46.26 807.68 -47.55 818.14C-45.98 829.94 -44.42 841.72 -43.6 847.89C-33.96 865.09 -27.03 877.45 -21.2 887.84C-13.21 892.48 -7 895.92 -0.98999 899.7C0.610016 900.71 2.14999 902.56 2.70999 904.34C7.06998 918.31 13.97 930.7 25.17 940.53C23.54 943.47 22.18 945.92 21.21 947.68C27 951.56 31.85 954.81 35.95 957.56C37.2234 964.533 40.8 969.697 46.68 973.05C45.74 969.47 45.63 966.67 44.35 964.61C37.46 953.47 30.57 942.31 23.06 931.59C19.48 926.49 17.62 921.45 17.59 915.41C26.84 914.87 30.38 915.8 31.82 921.48C35.27 935.08 45.19 943.54 54.44 952.75C56.35 954.65 57.28 957.54 58.88 960.37C66.17 968.15 74.42 976.01 81.39 984.87C84.11 988.33 86 994.75 84.67 998.58C82.13 1005.89 86.38 1007.92 90.77 1010.62C107.98 1021.19 126.14 1029.66 144.51 1034.68C151.19 1033.22 156.87 1031.99 162.8 1030.7C173.87 1048.35 191.71 1050.55 207.84 1053.74C212.12 1058.64 215.77 1062.83 219.36 1066.94C216.7 1073.19 220.16 1075.32 225.11 1077.49C229.32 1079.34 232.9 1082.61 237.89 1086.03C243.12 1088.28 249.75 1091.13 255.64 1093.65C257.19 1089.63 258.59 1086.02 259.97 1082.43C255.15 1083.41 250.33 1084.39 245.58 1085.36C240.96 1078.28 234.43 1072.29 233.21 1065.37L233.22 1065.36Z" fill="#3A2075" fill-opacity="0.03"/>
<path d="M277.5 891.12C277.5 891.12 277.44 891.18 277.4 891.22C277.6 891.21 277.6 891.16 277.5 891.12Z" fill="#3A2075" fill-opacity="0.03"/>
<path d="M259.98 1082.43C260.16 1082.39 260.33 1082.36 260.5 1082.32C260.65 1082.22 260.78 1082.16 260.92 1082.08C260.66 1082.04 260.41 1082 260.15 1081.97C260.09 1082.12 260.03 1082.28 259.97 1082.43H259.98Z" fill="#3A2075" fill-opacity="0.03"/>
<path d="M630.5 454.42C623.16 452.26 617.51 450.6 609.47 448.24C614.28 446.68 616.79 445.87 619.13 445.11C619.29 442.06 619.43 439.27 619.47 438.42C627.91 435.37 634.58 432.96 642.05 430.25C644.7 435.68 647.42 441.24 650.1 446.72H661.82C664.49 433.64 657.61 423.71 652.43 413.89C653.79 409.61 654.97 405.9 656.43 401.31C653.84 399.5 651.07 397.58 648.57 395.83C645.72 398.27 643.85 399.86 640.82 402.45C638.88 397.39 637.45 393.63 635.57 388.71C640.05 389.41 643.21 389.91 646.53 390.43C645.67 388.37 645.05 386.9 644.24 384.98C641.89 384.58 639.18 384.12 638.16 383.95C636.77 378.5 635.66 374.16 634.55 369.84C639.54 371.83 644.48 373.8 649.65 375.87C650.02 379.1 650.42 382.52 650.92 386.84C658.19 384.26 664.52 382.02 671.11 379.68C668.95 376.09 673.26 370.79 666.8 369.99C664.85 372.08 662.9 374.17 660.95 376.27C661.26 363.11 675.99 364.59 681.17 354.86C677.08 353.56 673.21 352.33 667.54 350.53C670.48 347.94 672.22 346.41 674.27 344.6C673.8 342.66 673.3 340.57 672.84 338.65C675.55 337.06 677.94 335.67 680.02 334.45C678.05 325.91 676.14 317.62 674.63 311.04C670.15 310.02 666.08 309.09 662.21 308.21V295.57C665.19 292.11 668.21 288.6 670.9 285.48C675.82 286.77 680.33 287.96 686.31 289.54C686.03 284.34 685.8 280.26 685.6 276.5C680.18 275.67 676.25 275.07 672.74 274.54C671.47 270.21 670.5 266.9 669.59 263.78C671.12 262.63 672.17 261.84 674.36 260.2C670.47 258.25 667.62 256.83 664.34 255.19C665.2 232.6 674.73 211.82 680.3 189.57C682.8 189.75 685.39 189.95 688.37 190.17C690.09 186.49 691.88 182.68 693.56 179.1C690.62 177.54 688.46 176.4 683.7 173.88C690.44 172.78 694.21 172.17 698.59 171.46C699.85 169.12 701.3 166.46 702.56 164.13C700.76 161.7 699.32 159.76 698.46 158.6C693.84 159.22 690.39 159.68 686.94 160.15C686.66 159.34 686.37 158.53 686.09 157.72C688.41 155.2 690.73 152.68 692.62 150.61C697 151.67 700.42 152.49 703.31 153.19C706.93 150.58 709.82 148.5 712.61 146.49C713.01 143.99 713.38 141.65 713.32 142.04C720.81 134.87 726.56 129.36 732.02 124.13C733.1 105.08 715.82 106.48 705.34 99.76C701.38 103.58 697.36 107.45 693.2 111.46C693.96 112.83 695.24 115.17 697.55 119.36C692.35 118.41 689.07 117.82 685.57 117.18C683.91 118.25 682.04 119.47 679.55 121.07C679.2 117.13 678.92 114.02 678.58 110.26C672.15 120.29 666.12 129.7 659.2 140.51C654.57 128.93 663.31 123.06 664.9 115.19C666.59 106.77 667.41 98.84 665.94 90.56H653.19C652.77 95.44 652.39 99.77 651.94 104.98C642.71 107.79 636.68 116.93 624.43 119.72C627.39 107.89 640.27 108.56 642.58 97.53C642.27 96.45 641.42 93.51 640.4 89.97C633.29 89.97 626.65 89.01 620.45 90.23C614.02 91.49 607.61 94.18 601.94 97.52C596.84 100.53 592.76 105.28 587.23 110.13V98.28C594.34 92.79 600.51 88.04 609.37 81.21H644.91C651.38 78.53 657.9 75.83 665.17 72.81C668 68.81 671.38 64.02 674.93 59C667.74 48.14 657.54 43.38 646.22 40.52C644.66 35.12 643.13 29.85 641.32 23.62C636.7 26.29 632.63 28.64 627.57 31.56C624.88 31.44 621.07 31.27 615.58 31.03C620.24 27.93 623.57 25.93 626.65 23.6C630.38 20.79 637.58 20.22 634.17 11.94C627.3 8.57002 621.33 -1.04998 613.4 7.74002C607.73 4.64002 603.01 2.06002 599.26 0.0200195C583.92 0.93002 569.85 1.77002 555.96 2.59002C554.08 5.20002 552.51 7.38002 550.93 9.58002C548.71 8.77002 546.89 8.10002 545.3 7.51002C538.92 12.47 532.77 17.26 526.57 22.08C528.52 23.74 530.75 25.63 532.92 27.48C531.39 29.63 530.25 31.23 529.52 32.26C531.53 36.01 533.29 39.29 536.54 45.35C530.3 42.89 526.85 41.53 523.83 40.34C523.38 36.17 523.04 33.02 522.78 30.56C518.29 28.3 514.51 26.39 510.08 24.15C509.03 27.46 508.06 30.51 507.06 33.65C502.99 35.02 496.61 29.04 494.6 37.41C496.76 40.8 498.95 44.22 501.18 47.72C508.05 49.75 516.71 45.44 521.89 54.79C515.72 53.4 509.54 52 503.25 50.58C503.04 52.83 502.92 54.16 502.74 56.12C499.23 55.26 496.32 54.55 493.04 53.74C496.667 59.6867 497.38 64.22 495.18 67.34C490.71 64.04 487.3 57.33 479.75 62.66C480.99 67.75 482.21 72.7 483.63 78.51C486.83 81.32 490.48 84.52 494.13 87.73C493.73 87.98 493.34 88.22 492.94 88.47C495.82 95.75 498.7 103.04 501.85 111C499.4 111.29 497.53 111.51 495.46 111.75C491.73 104.85 488.17 98.29 484.62 91.72C483.63 92.74 482.64 93.76 481.65 94.78C478.23 88.49 474.81 82.21 470.88 74.99C470.99 74.72 471.12 74.39 471.27 74.03C466.59 71.68 463.24 65.41 456 69.09C451.68 79.29 458.98 87.3 462.26 97.08C458.99 98.8 455.6 100.57 451.4 102.77C448.92 95.56 446.72 89.14 444.59 82.93C445.85 82.62 447.1 82.31 448.35 82C447.64 81.04 446.93 80.07 446.23 79.11H439.22C438.35 81.16 437.53 83.12 436.11 86.48C433.58 81.82 431.8 78.56 430.5 76.15C418.96 80.77 408.3 85.04 398 89.16V94.53C392.83 97.79 388.66 100.42 386.48 101.8C386.98 110.44 387.34 116.69 387.7 122.94C387.28 126.28 388.31 129.8 390.33 132.63C393.36 136.88 392.78 139.96 387.84 143.3C385.57 140.11 383.51 136.75 380.98 133.78C376.86 128.93 373.11 129.9 369.21 135.61C364.32 142.77 358.8 149.48 353.67 156.47C350.87 160.29 348.32 164.28 345.54 168.36C347.05 171.48 348.38 174.25 349.5 176.57C355.87 177.02 361.56 177.41 367.18 177.81V194.88C363.64 201.29 360.38 207.2 357.23 212.9C350.94 214.33 344.77 215.74 338.58 217.16C334.26 229.39 320.58 228.18 313 236.2C312.02 239.18 310.92 242.55 309.7 246.29C313.76 251.24 317.94 256.33 322.29 261.63C323.4 260.39 324.38 259.3 325.06 258.53C329.86 260.61 328.9 269.24 335.93 268.15C341.34 267.32 346.53 265.06 353.41 262.95C353.77 266.08 354.18 269.6 354.63 273.43C340.89 271.99 330.13 276.14 317.54 283.54C327.01 288.46 334.42 292.32 341.21 295.84C338.87 297.6 335.58 300.08 332.14 302.67C337 308.84 342.28 314.12 350.74 313.28C351.78 310.9 352.74 308.69 353.75 306.36C356.65 308.29 358.86 309.76 361.01 311.2C363.94 308.57 366.31 306.44 368.68 304.31C372.04 305.61 375.04 304.62 377.96 304.81C382.17 305.09 386.32 306.24 391.1 307.13C397.67 316.22 415.97 318.72 409.21 337.05C413.06 339.89 416.56 342.48 420.67 345.52C420.61 351.85 428.42 358.53 420.71 365.64C423.02 366.96 425.62 368.45 429.05 370.41C427.12 371.84 425.93 372.72 424.74 373.6C426.95 376.11 429.07 378.52 430.83 380.52C431.15 384.34 431.42 387.53 431.62 389.88C434.19 391.77 436.06 393.15 436.14 393.2V409.74C438.17 407.95 439.49 406.79 442.1 404.5C443.45 410.49 444.48 415.03 445.3 418.67C455.8 426.49 458.49 437.88 460.18 450.76C456.42 448.35 452.66 445.94 447.84 442.85C447.13 442.81 445.11 442.79 443.12 442.54C441.39 442.32 439.69 441.82 437.66 441.37C437.66 445.4 438.59 448.79 437.5 451.3C432.8 462.07 432.68 462.68 440.97 472.12C444.55 470.45 448.4 468.66 450.77 467.56C454.02 463.74 448.13 458.75 455.15 457.81C459.91 466.51 461.88 475.74 459.09 484.75C453.76 487.3 448.87 489.64 443.95 491.99C445.24 494.48 446.12 496.18 446.98 497.86C452.24 498.25 457.32 498.63 463.26 499.07C462.36 501.86 461.89 503.63 461.16 505.29C461.05 505.55 459.71 505.26 458.94 505.22C458.82 503.92 458.7 502.62 458.53 500.68C454.12 502.04 450.42 503.18 446.49 504.39C445.91 507.87 445.34 511.26 444.78 514.62C446.57 515.17 448.07 515.62 449.65 516.1V520.05C451.78 519.59 453.38 519.24 454.99 518.89C455.48 519.66 455.97 520.43 456.46 521.2C453.98 523.72 451.5 526.24 449 528.77C450.98 529.61 452.89 530.42 455.27 531.42C452.44 533.89 450.21 535.84 449.73 536.26C451.09 544.54 451.64 550.95 453.28 557.07C454.98 563.37 454.93 571.43 464.85 571.98C466.17 588.93 474.17 603.11 486.02 610.34C489.73 608.73 493.66 607.02 498.53 604.9V613.65C503.84 616.35 508.85 618.89 514.64 621.83C516.54 608.12 518.23 595.95 520.05 582.79C521.39 579.83 523.23 575.77 525.07 571.7C527.28 571.36 529.61 571 531.67 570.69C530.74 562.75 529.87 555.41 529 548.07C537.03 549.39 536.81 542.23 539.43 537.51C543.32 537.33 547.29 537.15 551.6 536.95C552.2 533.89 552.71 531.27 553.14 529.09C555.49 530.37 557.75 531.59 562.5 534.17C564.26 531.21 565.41 526.46 567.98 525.51C573.7 523.39 575.95 519.9 577.38 514.36C581.1 499.9 593.2 493.4 605.51 489.17C625.54 482.29 625.69 482.95 638.81 472.43C642.71 469.31 647.54 467.36 651.9 464.9C652.44 462.3 652.98 459.73 653.57 456.91C648.12 454.63 643.05 452.51 637.81 450.31C634.95 451.91 631.93 453.6 630.47 454.42H630.5Z" fill="#3A2075" fill-opacity="0.03"/>
<path d="M567.31 1182.28C552.27 1185.05 547.34 1169.28 537.03 1165.97C527.6 1165.19 519.68 1164.54 509.95 1163.73C509.41 1164.05 507.19 1165.4 504.69 1166.9C504.03 1163.68 503.48 1160.99 502.6 1156.67C489.64 1153.21 476.37 1149.67 462.84 1146.05C462.81 1145.47 462.3 1144.04 462.77 1143.1C464.01 1140.66 465.69 1138.44 466.72 1136.87C463.62 1131.74 459.78 1127.44 458.35 1122.45C456.74 1116.85 453.24 1114.29 449.09 1110.88C439.62 1103.08 428.69 1104.95 418.22 1104.29C409.85 1097.71 401.69 1091.29 393.17 1084.59C390.29 1081.95 387.04 1078.97 383.86 1076.05C385 1075.05 386.9 1073.37 390.3 1070.38C373.19 1075.58 357.85 1075.2 342.1 1072.06C339.36 1069.92 336.25 1067.5 333.75 1065.55C326.98 1066.11 321.35 1072.76 315.65 1066.77C316.74 1064.71 317.56 1063.16 318.75 1060.9C308.86 1065.17 300.26 1068.88 292.68 1072.15C288.66 1078.36 285.12 1083.82 281.58 1089.29C274.88 1084.89 270.19 1076.34 260.92 1082.07C263.39 1082.44 265.81 1082.8 267.74 1083.08C271.13 1088.84 274.11 1093.9 277.61 1099.85C277.9 1105.89 278.24 1113.05 278.67 1122.12C274.7 1126.55 268.89 1131.94 264.45 1138.29C259.53 1145.32 251.42 1151.6 256.45 1161.23C258.22 1163.18 260 1165.12 261.73 1167.02C257.33 1170.78 254.08 1173.56 251.26 1175.97C252.54 1180.83 253.54 1184.63 254.54 1188.42C264.18 1195.13 283.43 1229.52 286.14 1245.76C291.35 1249.85 296.65 1256.63 303.4 1258.72C313.52 1261.85 319.4 1268.92 323.4 1272.82C334.35 1291.66 326.23 1307.8 325.9 1323.69C325.57 1339.68 320.06 1355.56 316.83 1371.5C318.45 1376.22 320 1381.21 318.95 1385.56C316.44 1395.93 313.68 1406.47 309.16 1416.06C304.96 1424.97 303.03 1433.2 305.89 1438.97C304.13 1448.35 302.95 1454.64 301.76 1460.95C305.95 1461.68 308.24 1462.07 312.66 1462.83C308.87 1464.25 307.42 1464.8 305.27 1465.61C312.89 1472.15 308.16 1479.73 307.43 1487.05C308.66 1488.01 309.89 1488.97 310.4 1489.36C307.82 1495.67 305.34 1501.73 302.58 1508.51C300.63 1506.73 298.84 1505.09 296.58 1503.04C295.27 1505.61 294.25 1507.62 293.48 1509.15C297.34 1514.88 300.94 1520.2 304.71 1525.79C302.34 1526.37 300.42 1526.84 298.79 1527.24C298.47 1534.31 304.04 1541.13 298.11 1547.06C295.19 1546.27 293.18 1545.73 290 1544.88C292.8 1548.45 294.67 1550.86 295.99 1552.54C298.99 1552.3 301.27 1552.12 304.87 1551.84C302.99 1554.48 301.88 1556.04 301.07 1557.18C302.66 1560.27 304.03 1562.94 305.13 1565.06C306.34 1562.97 307.22 1561.44 308.11 1559.9C308.96 1560.62 309.81 1561.34 310.66 1562.07C310.42 1563.8 310.17 1565.54 309.87 1567.68C314.13 1570.53 318.53 1573.48 323.15 1576.57C324.98 1580.26 326.92 1584.17 329.07 1588.53C327.02 1592.17 324.89 1595.95 322.68 1599.89C327.76 1600.46 332.76 1601.02 337.67 1601.56C339.05 1603.43 340.43 1605.31 341.99 1607.43C345.08 1605.29 347.77 1603.44 349.55 1602.2H361.03C354.72 1597.93 349.85 1594.62 345.24 1591.5C341.77 1585.3 338.44 1579.35 334.57 1572.44C334.78 1572.25 336.15 1571 336.74 1570.47C335.37 1564.3 334.12 1558.65 332.95 1553.34C336.8 1550.1 339.52 1547.82 342.24 1545.53C341.86 1545.28 341.48 1545.02 341.1 1544.77C346.86 1536.47 352.62 1528.18 358.44 1519.79C353.19 1514.78 343.98 1515.25 344.44 1504.04C346.8 1501.96 349.8 1497.89 353.81 1496.15C358.32 1494.19 359.22 1490.96 360.28 1487.16C361.63 1482.31 363.13 1477.51 364.67 1472.34C363.61 1467.63 362.43 1462.37 360.96 1455.88H380.17C381.62 1449.11 382.85 1443.37 384.12 1437.44C386.57 1437.44 388.59 1437.41 390.61 1437.44C405.68 1437.71 415.86 1432.78 421.4 1416.77C422.98 1412.2 426.86 1407.25 431.04 1404.96C446 1396.76 451.21 1380.44 462.34 1369.12C466.97 1364.41 469.97 1358.03 473.35 1352.2C474.61 1350.02 475.15 1347.28 475.48 1344.73C476.32 1338.35 476.85 1331.94 477.53 1325.26C487.48 1319.38 496.97 1313.77 506.34 1308.24H520.32C539.27 1287.74 543.52 1262.65 543.06 1240.98C553.6 1223.41 567.87 1213.76 572.45 1197.02C570.77 1192.22 569.22 1187.78 567.29 1182.28H567.31Z" fill="#3A2075" fill-opacity="0.03"/>
<path d="M153.09 207.45C159.67 205.55 165.62 203.84 171.81 202.05C172.02 204.96 172.24 207.96 172.42 210.4C174.26 211.34 175.57 212.01 176.89 212.68C176.72 213.1 176.54 213.53 176.37 213.95C173.32 213.74 170.26 213.54 167.21 213.33C168.65 214.68 170.1 216.02 171.54 217.37C167.67 217.56 163.8 217.75 159.41 217.97C165.91 224.5 170.54 229.16 175.64 234.28C174.5 234.28 173.62 234.3 172.74 234.28C171.73 234.25 170.72 234.19 169.57 234.14C171.53 244.61 180.01 245.35 186.89 247.77C191.13 246.22 194.82 244.88 198.76 243.44C199.39 240.15 199.95 237.17 200.33 235.19C202.91 234.02 204.64 233.24 206.78 232.27C205.05 231.14 204.12 230.53 203.04 229.83C205.62 227.49 207.95 225.37 210.34 223.2C215.57 230.3 208.93 234.13 207.04 239.2C208.23 241.8 209.38 244.29 210.05 245.76C216.27 248.33 221.61 250.54 226.96 252.75C225.83 257.09 225.06 260.08 224.22 263.31C226.49 265.34 228.52 267.15 231.09 269.44C228.23 269.62 225.91 269.77 222.99 269.95C217.19 257.79 210.76 255.54 203.44 261.59C205.76 268.13 208.01 274.43 209.84 279.6C203.83 282.76 199.17 285.2 194.8 287.5C195.32 293.61 195.68 297.88 195.89 300.29C206.18 309.98 210.6 294.71 218.37 297.19C218.05 299.64 217.83 301.35 217.59 303.24H228C228.75 301.03 229.35 299.25 230.14 296.92C232.87 299.09 235.34 301.06 237.28 302.61C242.74 301.17 247.5 299.92 252.75 298.54C253.4 302.33 253.85 304.92 254.63 309.43C261.72 302.87 267.92 297.39 273.66 291.47C274.36 290.75 272.59 287.64 272.02 285.81C270.24 287.36 268.92 288.51 266.66 290.47C265.66 285.31 264.94 281.56 264.22 277.82C266.91 274.59 269.55 271.41 272.9 267.38C272.36 263.27 271.72 258.35 270.95 252.46C274.74 253.32 277.67 253.98 281.03 254.74C284.06 252.9 287.43 250.85 291.73 248.23C288.06 237.63 299.87 227.43 290.08 216.94C292.92 216.28 294.47 215.92 295.99 215.56C295.75 213.4 295.52 211.39 295.31 209.53C292.71 209.15 290.46 208.83 287.88 208.45C291.15 200.11 297.56 199.85 301.42 200.08C307.63 196.18 311.73 193.77 315.65 191.09C317.28 189.98 320 187.91 319.74 186.98C317.78 180.06 324.16 177.14 326.51 172.49C331.3 163.01 337.02 153.97 342.84 145.06C346.51 139.44 351.06 134.4 355.21 129.1C358.34 124.39 367.25 123.7 364.13 114.09C360.28 115.68 356.86 117.1 353.51 118.48C352.24 116.65 351.29 115.76 350.95 114.67C350.61 113.57 350.87 112.28 350.87 111.07C358.717 105.37 364.303 102.66 367.63 102.94C376.59 94.0101 387.82 86.5401 390.11 70.7101C385.37 68.3401 380.78 66.0401 376.27 63.7801C377.21 63.1501 378.16 62.5101 379.35 61.7101C372.36 57.8201 373.79 46.0701 363.7 45.3301C362.99 46.2301 362.35 47.0601 361.65 47.9401C360.77 46.7701 360.07 45.8301 359.49 45.0601C357.85 46.8901 356.18 48.7501 352.91 52.4001C352.52 47.4201 352.3 44.7101 352.12 42.4101C345.29 40.5101 338.51 38.6301 331.8 36.7601C330.39 35.0801 328.89 33.2901 327.51 31.6601C315.1 35.5001 303.21 34.6001 297.54 30.3301C291.05 31.0801 285.62 31.7101 280.23 32.3301C278.09 36.2201 276.19 39.6701 273.83 43.9601C269.32 43.1201 264.76 42.2801 259.86 41.3701C258.97 43.6301 258.12 45.7901 257.3 47.8801C254.74 48.3701 252.32 48.8401 250.18 49.2501C251.52 52.3801 252.5 54.6901 253.58 57.2001H245.51C243.52 63.6001 241.69 69.4501 239.51 76.4601C233.07 73.2001 227.58 70.4301 221.34 67.2801V79.3301C218.09 80.0001 215.42 80.5501 213.3 80.9901C211.62 85.6501 210.17 89.6601 208.6 94.0201C207.44 91.5801 206.47 89.5501 205.16 86.8101C202.65 88.1401 200.53 89.0001 198.71 90.2901C195.62 92.4901 192.98 95.4001 189.7 97.2101C185.07 99.7601 180.78 102.41 178.46 107.4C179.49 109.1 180.52 110.8 181.36 112.17C183.69 110.24 186.04 108.29 188.4 106.34C189.2 106.91 190 107.49 190.8 108.06C189.55 111.38 188.3 114.69 187.27 117.41C190.1 120.32 193 123.3 196.57 126.97C192.88 128.38 190.83 129.17 187.56 130.42C191.09 133.27 193.93 135.56 197.2 138.19C197.01 139.14 196.64 140.96 196.22 143.08C199.92 146.57 203.55 150.01 207.24 153.49C209.25 150.99 210.21 149.79 211.36 148.37C214.2 152.18 216.29 154.97 216.64 155.45C226.61 160.96 233.93 156.01 241.36 155.48C249.43 154.91 257.1 148.76 264.53 145.24C263.99 142.89 263.6 141.15 262.57 136.66C267.52 141.2 270.31 143.76 273.38 146.57C269.06 148.98 264.66 149.94 263.04 152.6C257.5 161.66 248.2 163.65 239.46 166.38C239.13 170.3 244.4 174 238.55 177.56C236.6 175.08 234.73 172.71 233.41 171.03C226.96 169.91 221.55 168.98 215.41 167.91V178.63C217.34 179.39 219.04 180.06 221.99 181.22C218.06 182.07 215.4 182.64 212.11 183.34C213.61 187 214.95 190.29 216.82 194.87C206.46 191.88 210.93 184.29 209.21 179.86C207.03 178.34 205.19 177.05 203.35 175.77C204.17 175.27 204.99 174.77 205.82 174.27C206.24 170.88 206.65 167.49 207.07 164.11C199.52 161.39 192.87 158.99 185.61 156.37C182.98 148.77 180.46 140.41 177.19 132.37C174.87 126.67 170.46 122.7 164.01 121.79C163.38 121.7 162.64 122.4 160.49 123.45C162.28 126.2 163.95 128.77 165.81 131.63C164.66 133.74 163.38 136.1 162.23 138.22C159.61 137.95 157.53 137.74 153.85 137.37C154.6 141.88 155.14 145.16 155.62 148.03C152.86 155.06 150.18 161.9 147.51 168.71C149.64 169.84 151.77 170.96 155.18 172.76C150.79 173.43 148.12 173.84 144.68 174.37C147.54 185.59 150.17 195.89 153.12 207.48L153.09 207.45Z" fill="#3A2075" fill-opacity="0.03"/>
<path d="M337.49 444.73C333.3 443.54 329.51 442.45 325.58 441.33C322.22 436.14 318.87 430.98 314.91 424.87C312.25 426.67 309.96 428.23 307.62 429.81C299.24 423.66 293.48 414.73 291.7 404.55C284.13 404.15 280.3 399.91 281.97 392.06C275.76 391.63 270.6 391.27 265.97 390.95C263.03 385.8 260.51 381.4 258.27 377.48C248.69 378.05 240.46 372.14 231.79 381.36C224.36 389.25 220.74 396.33 222.49 406.56C223.61 406.67 224.73 406.77 226.13 406.89V410.19C221.9 413.71 219.11 416.04 215.47 419.07C214.35 410.8 213.4 403.81 212.3 395.73C213.5 392.69 214.79 388.42 216.84 384.56C218.81 380.84 221.57 377.54 224.18 373.77C209.19 370.89 198.29 378.02 195.52 392.69C193.32 404.33 192.16 416.16 190.5 428.2C196.89 429.91 201.81 431.23 209.3 433.24C202.93 436.05 199.38 437.62 195.76 439.21C197.67 445.71 201.33 449.77 208.65 449.58C210.51 449.53 212.72 449.96 214.22 450.98C221.67 456.06 229.8 457.54 238.5 456.68C238.88 454.76 239.14 453.25 239.53 451.77C239.59 451.53 240.23 451.44 241.07 451.09C246.49 455.53 256.35 452.02 259.97 461.69C264.42 458.52 268.7 455.46 273.13 452.31C277.38 457.27 281.58 462.18 285.78 467.08C284.84 467.48 283.91 467.87 282.97 468.27C283.24 471.74 283.44 475.21 283.84 478.66C283.91 479.28 284.84 479.81 285.62 480.65C287.56 479.56 289.56 478.43 291.48 477.35C304.71 485 311.79 496.52 313.96 510.95C309.18 517.49 304.52 523.84 300.04 529.97C301.94 533.32 303.62 536.29 305.65 539.87C296.45 543.05 288.72 547.85 279.7 541.88C276.93 546.32 274.53 550.18 271.92 554.36C277.84 559.81 281.48 559.83 286.62 556.76C290.33 554.55 295.66 555.06 301.29 554.2C306.71 559.38 312.88 565.26 319.11 571.21C318.76 572.86 318.4 574.61 318.1 576.02C324.14 580.09 329.28 584.31 335.07 587.24C341.21 590.36 347.97 592.27 354.46 594.71C354.84 594.09 355.22 593.47 355.61 592.86C350.24 587.05 344.87 581.24 339.31 575.22C341.27 574.07 343.2 572.94 345.06 571.85C350.6 575.12 355.95 578.27 361.3 581.42C362.05 580.9 362.8 580.39 363.55 579.87C362.62 576.28 360.32 572.38 361.05 569.18C362.61 562.35 359.5 558.71 355.42 553.93C350.41 548.06 346.63 540.85 343.61 533.67C340.8 527.01 342.94 523.91 349.53 521.08C353.72 524.76 357.83 528.36 362.26 532.25C361.41 538.18 363.69 542.81 371.22 545C372.07 541.9 372.82 539.15 373.34 537.26C375.87 536.54 377.32 536.13 378.95 535.67C379.32 532.13 379.64 528.97 379.79 527.56C382.74 523.76 384.71 521.23 385.61 520.07C378.89 515.51 371.27 513.04 368.93 508.08C365.69 501.2 361.37 500.02 355.76 498.99C349.42 493.73 342.62 489.15 335.94 484.4C334.81 483.6 334.2 482.08 333.08 480.53C335.89 479.27 338 478.33 340.15 477.38C339.99 475.48 339.84 473.74 339.72 472.32C341.13 471.83 342.26 471.44 342.44 471.37C340.71 462.09 339.13 453.56 337.49 444.73Z" fill="#3A2075" fill-opacity="0.03"/>
<path d="M106.93 475.15C107.95 473.86 108.05 471.84 108.73 469.65C105.54 469.87 102.92 470.05 100.31 470.23C100.19 469.55 100.07 468.88 99.95 468.2C104.55 466.05 109.15 463.89 114.46 461.41C114.4 460.08 114.29 457.8 114.21 455.96C103.61 450.26 93.22 445.61 89.12 434.01C94.01 419.79 80.8 408.57 83.03 393.7C77.88 390.68 72.75 387.67 67.62 384.66C66.75 385.2 65.88 385.73 65.01 386.27C66.5 396.86 67.99 407.45 69.47 417.96C67.77 418.58 66.26 419.13 64.75 419.67C60.82 412.1 63.78 401.14 53.3 396.14C49.94 399.74 46.86 403.05 42.95 407.26C41.98 402.83 41.31 399.81 40.45 395.89C34.7 395.09 28.97 394.3 24.27 393.65C23.4 389.99 22.71 387.09 21.89 383.66C19.29 384.82 18.27 385.46 17.16 385.72C15.79 386.04 14.35 386.03 12.8 386.18C13.3533 379.407 8.36666 371.327 -2.16 361.94C-4.8 362.95 -8.01001 364.17 -10.57 365.16C-16.14 361.69 -21.73 358.2 -26.79 355.05C-34.25 356.34 -40.86 357.48 -48.88 358.87C-47.1 364.44 -45.47 369.57 -43.97 374.28C-48.19 387.79 -52.37 401.15 -56.55 414.51C-46.77 417.44 -41.76 425.32 -38.37 434.19C-32.85 431.01 -27.82 428.11 -22.8 425.22C-23.28 424.97 -23.76 424.72 -24.24 424.47C-19.65 415.6 -15.07 406.72 -10.77 398.39C-6.85999 396.06 -3.63999 394.15 -0.429993 392.24C-1.25999 397.42 -6.17001 402.31 -5.20001 405.24C-2.78001 412.5 -11.96 414.07 -10.4 420.57C-5.41 423.7 0.0299911 427.11 5.73999 430.69C1.86999 432.91 -1.34001 434.76 -4.85001 436.77C-2.95 440.12 -1.63001 442.43 0.209991 445.66C7.37999 444.64 14.47 443.79 21.51 442.6C28.95 441.35 33.3 444.49 33.38 452.01C22.66 453.54 10.79 449.94 0.450012 458.52C4.31001 463.21 8.00999 467.69 11.8 472.29H26.57C27.33 477.03 27.95 480.89 28.69 485.51C32.95 485.74 36.6 486.62 39.99 486C53.56 483.51 66.78 479.95 76.75 470.68C79.67 472.53 82.28 474.17 84.26 475.43C83.98 477.74 83.76 479.53 83.54 481.26C85.51 479.87 87.48 478.49 89.29 477.21C96.95 482.36 101.64 481.81 106.92 475.16L106.93 475.15Z" fill="#3A2075" fill-opacity="0.03"/>
<path d="M83.55 481.24C83.4 481.35 83.24 481.46 83.09 481.57C83.08 481.63 83.08 481.68 83.07 481.74C83.2 481.8 83.34 481.87 83.47 481.93C83.5 481.7 83.53 481.47 83.55 481.24Z" fill="#3A2075" fill-opacity="0.03"/>
<path d="M888.54 234H904.97C903.75 236.1 902.68 237.96 901.56 239.9C903.16 241.82 904.63 243.57 907.05 246.46C909.75 240.71 911.86 236.21 914.35 230.91C918.75 232.73 923.19 234.58 929.25 237.09C921.42 243.34 915.33 248.21 908.41 253.74V258.08C910.88 259.42 913.14 260.65 915.42 261.88C913.37 265.66 911.73 268.7 909.64 272.56C914.34 277.27 918.75 281.69 923.7 286.66C923.7 286.66 923.33 288.11 922.9 289.82C924.88 291.48 926.95 293.2 928.78 294.73C932.9 285.08 929.71 273.08 939.37 264.87V251.13C940.24 250.62 942.26 249.44 944.11 248.35V233.19C949.7 230.6 955.15 228.06 961.58 225.07C954.25 220.12 948.24 216.05 941.62 211.58V198.67C939.37 200.74 937.73 202.26 936.08 203.77C935.44 203.46 934.81 203.15 934.17 202.83C935.14 199.26 936.11 195.69 937.73 189.69C935.05 187.43 930.89 183.92 925.54 179.41C924.3 184.47 923.48 187.79 922.68 191.11C921.92 194.27 921.2 197.44 919.91 202.99C917.63 197.04 916.39 193.82 915.07 190.36C912.95 192.13 911.41 193.41 909.45 195.05C908.08 191.9 907.08 189.6 906.08 187.3C902.33 188.85 899.25 190.13 896.97 191.08C895.26 189.89 894.48 189.27 893.61 188.8C893.47 188.72 892.99 189.24 892.67 189.49C887.23 202.81 887.25 202.99 896.09 217.08V228.23C894.11 229.73 892.5 230.96 888.55 233.97L888.54 234Z" fill="#3A2075" fill-opacity="0.03"/>
<path d="M200.18 346.75C200.52 347.22 200.86 347.68 201.2 348.15C200.46 349.57 199.72 350.99 198.69 352.96C209.48 357.13 220.1 353.28 230.47 354.13C232.88 352.09 235.25 350.08 236.79 348.78C240.28 351.13 243.1 353.02 245.4 354.57C250.67 353.03 255.07 351.73 260.19 350.23C258.58 348.5 257.62 347.48 256.5 346.28C258.26 345.53 259.94 344.82 261.89 343.99C259.93 343.22 258.19 342.54 256.39 341.84C258.75 338.62 261 335.55 263.18 332.58C254.28 323.733 242.193 320.923 226.92 324.15C223.82 325.89 220.72 327.63 217.79 329.28C210.79 328.06 203.36 326.77 197.65 325.77C194.12 320.95 191.54 317.42 188.74 313.6C190.2 311.4 191.91 308.83 193.65 306.2C189.14 304.16 185.19 302.38 180.4 300.21C183.14 299.11 184.57 298.53 186 297.96C186.02 297.38 186.04 296.8 186.06 296.23C181.11 295.97 176.16 295.71 169.05 295.33C164.52 286.04 155.39 283.13 144.55 283.72C141.55 293.04 149.99 298.04 152.26 305.28H171.57C172.85 311.23 176.93 318.66 175.08 324.06C171.93 333.27 175.97 340.29 177 348.45C182.49 349.82 187.43 351.05 191.8 352.14C194.87 350.16 197.51 348.46 200.14 346.76L200.18 346.75Z" fill="#3A2075" fill-opacity="0.03"/>
<path d="M5.60999 314.17C8.66998 316.27 11.25 318.04 14.91 320.56C10.09 320.95 6.90999 321.21 3.32999 321.49C2.40999 326.06 1.53999 330.39 0.609985 335.05C10.85 340.62 21.39 338.37 32.74 338.93C28.91 343.5 25.79 347.23 22.42 351.26C24.95 353.44 27.31 355.49 30.84 358.54C40.57 352.52 50.18 346.58 57.76 341.89C64.73 342.23 69.43 342.46 73.63 342.67C81.33 335.28 83.96 323.43 80.01 314.24C75.11 313.94 69.96 313.63 65.29 313.35C63.47 305.56 61.74 298.19 59.84 290.06C56.29 294.56 53.13 298.55 49.87 302.69C52.12 305.31 54.43 307.99 56.77 310.71C56.24 313.29 55.77 315.53 55.31 317.77C57.17 320.15 59.02 322.53 62.56 327.07C54.45 327.45 48.64 327.73 43.5 327.97C39.57 320.87 35.96 314.35 32.26 307.67C29.86 308.01 27.73 308.3 25.11 308.67C23.47 305.43 21.94 302.43 20.17 298.93C13.4 302.61 7.89999 306.88 5.60999 314.17Z" fill="#3A2075" fill-opacity="0.03"/>
<path d="M1150.16 1241.07C1144.86 1250.58 1137.26 1256.78 1126.69 1259.99C1123.47 1260.97 1121.19 1265.07 1118.74 1267.48C1120.11 1274.47 1121.25 1280.33 1122.65 1287.47C1110.98 1298.21 1114.85 1311.12 1119.99 1324.92H1137.83C1144.58 1300.84 1151.09 1277.61 1157.88 1253.39C1157.73 1253.46 1159.04 1252.86 1160.29 1252.29C1158.81 1246.58 1157.48 1241.41 1155.77 1234.8C1153.13 1237.71 1151.23 1239.16 1150.17 1241.07H1150.16Z" fill="#3A2075" fill-opacity="0.03"/>
<path d="M779.42 690.38C782.87 689.81 785.19 689.43 787.96 688.97C790.02 694.61 792.19 700.57 793.98 705.48C789.58 707.99 786.93 709.51 784.04 711.15C788.63 717.49 785.24 720.9 780.25 723.64C783.16 725.39 785.68 726.91 788.24 728.46C785.62 731.69 783.4 734.42 780.82 737.6C783 739.19 784.51 740.29 785.38 740.92C796.28 733.74 808.68 736.96 820.1 733.55C819.65 730.47 819.27 727.9 818.9 725.42C820.98 722.58 823.07 719.73 823.58 719.03C819.48 713.86 815.53 709.84 812.72 705.14C805.96 693.82 799.73 682.17 793.89 671.73C795.71 665.78 797.24 660.77 798.72 655.9C793.79 654.4 790.59 653.43 786.9 652.3C788.49 648.54 789.58 645.98 791.18 642.2C785.86 643.75 782.17 644.83 778.06 646.02C772.43 658.45 774.56 669.89 781.35 680.28C780.65 683.86 780.09 686.77 779.39 690.35L779.42 690.38Z" fill="#3A2075" fill-opacity="0.03"/>
<path d="M939.02 187.52C944.67 188.15 949.03 188.64 953.77 189.17C953.2 191.54 952.48 194.5 951.7 197.73C954.23 200 956.56 202.11 958.94 204.25C962.86 203.72 966.38 203.25 969.69 202.81C971.26 204.94 972.81 207.03 974.45 209.25C979.43 206.83 983.72 204.75 987.09 203.12C991.58 196.54 995.57 190.7 1000.06 184.14C1002.21 169.41 986.27 175.88 981.57 168.87C979.02 171.16 977.15 172.84 975.59 174.24C974.29 170.38 973.27 167.35 972.25 164.33C971.48 164.36 970.7 164.39 969.93 164.42C969.37 169.14 968.8 173.86 968.17 179.1C962.19 174.19 956.86 169.82 950.66 164.72C946.86 167.57 942.81 170.62 938.25 174.04C939.5 175.38 941.07 177.08 942.66 178.79C941.67 181.15 940.67 183.53 939 187.53L939.02 187.52Z" fill="#3A2075" fill-opacity="0.03"/>
<path d="M1203.98 383.43C1205.81 375.46 1207.28 369.06 1208.37 364.31C1218.1 353.37 1227.02 343.32 1235.95 333.28C1247.24 324.5 1260.03 317.28 1273.04 310.49C1279.78 306.97 1284.79 302.23 1287.28 295.01C1287.52 294.31 1287.31 293.45 1287.31 292.8C1286.73 292.01 1286.37 291.22 1285.76 290.75C1284.85 290.03 1283.76 289.54 1281.76 288.37C1269.4 298.43 1259.57 314.87 1240.79 309.85C1237.9 312.59 1236.03 315.88 1233.52 316.49C1224.55 318.65 1219.45 324.88 1214.57 331.88C1210.83 337.24 1206.5 342.19 1201.89 348C1206.01 359.44 1195.13 365.13 1189.9 375.36C1194.26 377.86 1198.36 380.21 1203.97 383.42L1203.98 383.43Z" fill="#3A2075" fill-opacity="0.03"/>
<path d="M163.95 351.13C165.71 346.03 166.83 342.76 167.94 339.55C165.06 335.02 162.32 330.7 159.39 326.08C151.74 325.02 141.58 333.98 136.24 319.7V301.14C129.64 293.18 120.36 299.33 113.28 295.89C111.68 298.06 109.79 300.63 109.22 301.41C108.92 306.96 109.15 310.72 108.41 314.29C107.64 318.03 105.94 321.58 104.61 325.33C109.9 324.89 115.35 324.44 122.99 323.81C120.43 328.17 119.3 330.09 118.19 331.99C119.46 335.23 120.7 338.43 122.03 341.82C125.64 340.77 128.51 339.94 130.98 339.22C132.74 335.11 134.24 331.61 135.88 327.79C140.35 329.63 144.26 331.24 147.92 332.75C147.52 336.42 147.2 339.35 146.8 343C152.7 345.79 158.11 348.35 163.96 351.12L163.95 351.13Z" fill="#3A2075" fill-opacity="0.03"/>
<path d="M106.13 391.92C104.52 393.73 103.73 394.61 102.28 396.25C111.75 407.33 121.23 418.42 130.72 429.52C135.17 425.27 139.26 421.37 142.92 417.86C143.8 412.57 144.58 407.91 145.56 402.07C144.2 400.14 142.14 397.22 140.37 394.71C141.77 393.5 142.83 392.6 144.11 391.5C140.59 390.72 137.56 390.05 134.91 389.46C137.41 383.25 139.38 378.37 142.11 371.6C135.7 372.76 131.19 373.58 126.43 374.45C124.66 373.18 122.75 371.82 119.5 369.49C116.56 373.41 113.67 377.25 110.19 381.89C113.99 383.27 116.4 384.15 117.48 384.54C118.4 389.57 119.14 393.61 120.01 398.36H111.62C109.95 396.39 108.14 394.27 106.14 391.92H106.13Z" fill="#3A2075" fill-opacity="0.03"/>
<path d="M715.22 543.82C711.08 538.7 707.71 534.51 704.31 530.3C696.99 531.88 689.57 533.49 681.13 535.31C675.93 538.64 669.57 542.72 661.7 547.76C662.57 552.15 663.7 557.83 664.81 563.4C671.27 566.24 677.29 568.9 682.06 571C692.08 565.28 700.66 560.38 709.57 555.3C711.53 551.31 713.59 547.13 715.22 543.83V543.82Z" fill="#3A2075" fill-opacity="0.03"/>
<path d="M187.31 371.76C172.99 363.02 158.77 362.47 152.25 370.45C153.12 371.17 153.98 371.88 154.97 372.7C148.92 377.87 151.39 384.98 151.67 391.2C151.96 397.9 154.18 404.51 155.8 412.35C158.73 412.51 161.96 412.68 165.92 412.89C164.62 406.63 163.6 401.68 162.45 396.12C166.91 396.34 171.5 396.58 175.81 396.79C179.75 388.22 183.54 379.98 187.32 371.75L187.31 371.76Z" fill="#3A2075" fill-opacity="0.03"/>
<path d="M88.74 239.84C99.22 241.83 106.57 243.22 112.79 244.39C115.23 249.85 116.95 253.72 118.68 257.59C121.8 257.2 124.05 256.92 126.74 256.58C125.05 247.66 123.97 239.39 121.69 231.46C120.92 228.79 117.11 226.99 114.69 224.8C114.25 225.18 113.82 225.55 113.38 225.93C112.51 223.38 111.65 220.83 111.62 220.75C103.98 214.07 98.2 209.02 92.65 204.17C87.1367 206.383 84.1733 209.29 83.76 212.89C88.08 218.73 91.83 223.79 95.66 228.97C89.35 232.79 84.78 236.12 88.73 239.84H88.74Z" fill="#3A2075" fill-opacity="0.03"/>
<path d="M-16.64 316.95C-15.31 315.55 -13.92 314.09 -12.52 312.61C-13.85 311.65 -15.06 310.77 -17.91 308.71C-13.75 308.17 -11.19 307.84 -10.04 307.69C-8.62004 302.02 -7.30004 296.76 -5.98004 291.51C-5.10004 291.54 -4.21002 291.58 -3.33002 291.61C-2.24002 296.19 -1.14002 300.76 -0.0500183 305.34C0.599983 305.25 1.24998 305.16 1.88998 305.07C2.37999 302.5 2.85997 299.94 3.30997 297.57C5.72997 296.52 7.80996 295.61 10.37 294.5C9.63997 289.87 8.95997 285.6 8.18997 280.75C9.33997 279.14 10.93 276.91 12.76 274.34C10.58 272.06 8.67996 270.06 6.54996 267.83C5.83996 270.06 5.23996 271.92 4.85995 273.11C-0.600044 273.83 -5.74002 274.51 -10.36 275.13C-17.89 286.65 -23.3 298.9 -36.28 305.06C-34.71 308.38 -33.37 311.2 -32.37 313.31C-25.93 314.8 -21.37 315.86 -16.65 316.95H-16.64Z" fill="#3A2075" fill-opacity="0.03"/>
<path d="M423.56 729.53C422.13 730.86 420.21 731.89 419.45 733.48C413.99 744.85 408.76 756.33 403.41 767.9C414.85 768.99 425.98 770.05 435.46 770.96C439.07 773.75 441.42 775.56 443.84 777.44C447.23 769.69 446.83 767.75 438.45 750.68C434.22 751.04 430.8 751.33 427.64 751.6C425.91 747.27 424.44 743.61 422.67 739.19C423.62 736.94 428.92 734.44 423.56 729.53Z" fill="#3A2075" fill-opacity="0.03"/>
<path d="M1187.25 440.46H1203.98C1192.34 423.51 1191.83 406.26 1198.6 388.28H1184.8C1182.64 397.06 1180.58 405.44 1178.59 413.56C1176.18 415.05 1173.73 416.57 1169.21 419.37C1176.95 424.96 1183.19 429.47 1189.43 433.98C1188.82 435.77 1188.22 437.57 1187.25 440.47V440.46Z" fill="#3A2075" fill-opacity="0.03"/>
<path d="M768.16 719.04C769.22 710.14 770.19 702 771.15 693.87C771.7 693.91 772.24 693.95 772.79 693.98C771.67 691.48 770.54 688.97 769.48 686.6H756.91C755.87 690.68 754.95 694.29 754.04 697.87C750.81 698.01 748.16 698.13 745.68 698.24C745.54 701.07 745.43 703.41 745.31 705.74C745.9 705.83 746.49 705.92 747.08 706.01C749.04 709.21 751.01 712.41 752.8 715.33C748.86 718.41 745.84 720.76 742.07 723.71C753.85 732.09 759.07 718.22 768.15 719.04H768.16Z" fill="#3A2075" fill-opacity="0.03"/>
<path d="M958.08 235.86C959.22 247.61 960.22 257.89 961.2 268.02C963.5 267.22 966.95 266.01 970.57 264.74C971.29 267.41 971.77 269.19 972.21 270.85C979.49 268.17 978.13 261.63 978.83 258.21C975.61 253.34 973.36 249.95 970.76 246.02C969.38 245.7 967.14 245.18 965.38 244.77V236.73C962.71 236.41 960.5 236.15 958.07 235.86H958.08Z" fill="#3A2075" fill-opacity="0.03"/>
<path d="M140.69 246.49C141.13 250.06 141.52 253.24 141.97 256.93C147.42 254.81 151.67 253.15 154.96 251.87C154.61 246.65 154.34 242.6 154.07 238.52C147.99 233.8 141.66 228.87 135.33 223.94C134.51 224.39 133.7 224.85 132.88 225.3C133.53 230.79 134.19 236.27 134.9 242.32C136.92 243.77 139.1 245.34 140.7 246.49H140.69Z" fill="#3A2075" fill-opacity="0.03"/>
<path d="M52.77 267.09C49.88 262.35 47.81 258.94 46.04 256.02C48.31 254.76 50.81 253.38 53.89 251.67C52.32 249.99 51.51 249.12 50.24 247.76C41.77 251.14 33.56 254.42 25.38 257.68C29.41 263.23 32.86 267.99 36.26 272.68C41.64 270.86 45.69 269.48 52.77 267.08V267.09Z" fill="#3A2075" fill-opacity="0.03"/>
<path d="M229.47 988.82C245.63 980.49 256.71 991.71 268.41 992.77C272.4 997.13 275.86 1000.89 278.79 1004.09H295.58C295.64 1003.38 295.7 1002.68 295.76 1001.97C283.54 995.73 271.51 989.09 259.04 983.41C250.69 979.61 238.17 981.89 229.48 988.82H229.47Z" fill="#3A2075" fill-opacity="0.03"/>
</g>
<defs>
<clipPath id="clip0_492_58">
<rect width="2475.33" height="1607.44" fill="white" transform="translate(-348)"/>
</clipPath>
</defs>
</svg>
